<svg width="81" height="81" viewBox="0 0 81 81" fill="none" xmlns="http://www.w3.org/2000/svg">
<g opacity="0.25" clip-path="url(#clip0_3333_883)">
<path d="M57.582 36.5124L50.1228 57.6959L28.0477 53.5643L16.5206 43.3427L17.0858 34.5779L22.1966 28.8144L33.6799 29.2164L39.0734 19.0704L46.6201 17.5261L54.4933 21.4189L57.582 36.5124Z" stroke="white" stroke-linecap="round" stroke-linejoin="round"/>
<path d="M48.3714 37.6111L44.0328 47.148L33.6043 46.137L28.4497 42.081L29.1781 36.0348L37.3339 35.5453L41.8357 28.7269L47.4361 31.1191L48.3714 37.6111Z" stroke="white" stroke-linecap="round" stroke-linejoin="round"/>
<path d="M41.8357 28.7267L39.0733 19.0703" stroke="white" stroke-linecap="round" stroke-linejoin="round"/>
<path d="M29.1781 36.0348L22.1966 28.8145" stroke="white" stroke-linecap="round" stroke-linejoin="round"/>
<path d="M33.6799 29.2163L37.3339 35.5451" stroke="white" stroke-linecap="round" stroke-linejoin="round"/>
<path d="M16.5206 43.3428L28.4497 42.081" stroke="white" stroke-linecap="round" stroke-linejoin="round"/>
<path d="M54.4932 21.4189L47.436 31.1191" stroke="white" stroke-linecap="round" stroke-linejoin="round"/>
<path d="M50.1228 57.6959L44.0328 47.1479" stroke="white" stroke-linecap="round" stroke-linejoin="round"/>
<path d="M28.0477 53.5643L33.6043 46.1369" stroke="white" stroke-linecap="round" stroke-linejoin="round"/>
<path d="M57.582 36.5125L48.3714 37.6111" stroke="white" stroke-linecap="round" stroke-linejoin="round"/>
</g>
<defs>
<clipPath id="clip0_3333_883">
<rect width="58.463" height="58.463" fill="white" transform="translate(0.447876 30.1201) rotate(-30.0003)"/>
</clipPath>
</defs>
</svg>
