<svg xmlns="http://www.w3.org/2000/svg" data-name="Layer 1" viewBox="0 0 500 500" x="0px" y="0px"><path d="M449.16,131.7l-80.36-80.36c-1.12-1.12-2.65-1.76-4.24-1.76H136.44c-1.59,0-3.12,.63-4.24,1.76L51.84,131.7c-1.12,1.12-1.76,2.65-1.76,4.24v228.12c0,1.59,.63,3.12,1.76,4.24l80.36,80.36c1.12,1.13,2.65,1.76,4.24,1.76h228.12c1.59,0,3.12-.63,4.24-1.76l80.36-80.36c1.13-1.12,1.76-2.65,1.76-4.24V135.94c0-1.59-.63-3.12-1.76-4.24Zm-122.7,159.39v-82.17l33.6-19.71v121.59l-33.6-19.71Zm-142.72,66.77l-20.55-20.56-20.55-20.55,30.66-17.99,30.38,25.11-19.93,33.98Zm174.61-174.61l-33.95,19.92-26.56-27.94,19.41-33.09,41.1,41.11Zm-217.41,127.55v-121.59l30.58,17.94v85.71l-30.58,17.94Zm36.58-100.13l67.05,39.34-67.05,39.34v-78.67Zm1.28-6.21l27.35-24.13,35.94,61.26-63.29-37.13Zm140.29,1.82l-60.18,35.3,35.77-60.97,24.41,25.67Zm-68.59,37.79l-38.42-65.48h76.83l-38.42,65.48Zm-77.15-42.81l-30.7-18.01,41.1-41.11,19.31,32.91-29.7,26.21Zm-41.41-15.59v128.67l-17.79,10.44V175.23l17.79,10.44Zm46.87,109.87l63.27-37.12-35.33,60.22-27.94-23.1Zm71.69-39.61l38.48,65.59h-76.96l38.48-65.59Zm8.41,2.49l60.15,35.29-25.05,24.53-35.09-59.82Zm-2.49-8.41l64.03-37.57v75.13l-64.03-37.57Zm108.85-72.55l-42.22-42.23,11.01-18.76,49.98,49.98-18.77,11.01Zm-72.85-4.86h-83.87l-18.86-32.15h121.59l-18.86,32.15Zm-114.5-37.37l-42.22,42.23-18.77-11.01,49.98-49.98,11.01,18.76Zm-72.79,34.73v160.1l-17.79,10.44V159.51l17.79,10.44Zm30.57,152.6l42.22,42.23-11.01,18.76-49.98-49.98,18.77-11.01Zm72.82,4.9c.2,.04,.41,.07,.62,.07h82.72c.2,0,.39-.02,.59-.06l18.83,32.1h-121.59l18.84-32.11Zm108.71,30.41l-20.12-34.29,27.28-26.72,33.93,19.91-41.1,41.11Zm51.8-43.53V185.67l17.79-10.44v149.54l-17.79-10.44Zm23.01-152.6l-53.3-53.3,11-18.76,61.05,61.05-18.76,11.01Zm-77.23-30.29H186.16l-10.44-17.79h149.56l-10.44,17.79Zm-152.62-23.01l-53.3,53.3-18.76-11.01,61.06-61.05,11,18.76Zm-83.87,45.8v191.54l-16.28,9.55V144.68l16.28,9.55Zm30.57,184.04l53.3,53.3-11,18.76-61.06-61.05,18.76-11.01Zm77.23,30.29h128.68l10.44,17.79H175.72l10.44-17.79Zm136.9-3.78l42.22-42.23,18.77,11.01-49.98,49.98-11.01-18.76Zm72.79-34.73V169.95l17.78-10.43v180.97l-17.78-10.43Zm26.78-175.82l16.29-9.56v210.64l-16.29-9.56V154.24Zm-3.78-8.22l-64.37-64.37,10.23-17.43,71.57,71.57-17.43,10.23Zm-88.29-41.37H170.44l-10.43-17.78h180.98l-10.43,17.78Zm-184.04-23l-64.37,64.36-17.43-10.22,71.57-71.57,10.23,17.43ZM82.14,353.99l64.37,64.36-10.23,17.43-71.57-71.57,17.43-10.22Zm88.3,41.36h160.11l10.43,17.78H160.01l10.43-17.78Zm168.33-3.78l53.3-53.3,18.76,11.01-61.05,61.05-11-18.76Zm7.49-313.7H154.73l-9.56-16.29h210.65l-9.56,16.29ZM154.73,422.13h191.53l9.56,16.29H145.18l9.56-16.29Zm209.98,13.65l-10.23-17.43,64.37-64.37,17.43,10.23-71.57,71.57Z"/></svg>