<svg xmlns="http://www.w3.org/2000/svg" data-name="Layer 1" viewBox="0 0 500 500" x="0px" y="0px"><path d="M43.85,119.7V379.24H456.15V119.7H43.85Zm35.13,38.91l11.02,9.29v164.35l-11.02,9.29V158.61Zm45.81,39.93v103.07l-18.36,16.51V182.03l18.36,16.51Zm6,100.86v-98.8l62.29,45.45c-.13,.33-.2,.69-.2,1.06v5.77c0,.37,.08,.73,.2,1.06l-62.29,45.45Zm68.09-52.29h102.25v5.78h-102.25v-5.77h0Zm-2.39-6l-56.07-40.91h219.4l-55.14,40.97c-.18-.03-.36-.06-.55-.06h-107.64Zm0,17.78h106.93l56.39,41.05H140.22l56.26-41.05Zm110.25-4.55c.24-.43,.39-.92,.39-1.45v-5.77c0-.17-.02-.34-.05-.5l62.14-46.17v99.38l-62.48-45.48Zm68.48,47.26v-103.07l18.36-16.51v136.09l-18.36-16.51Zm-5.39-108.87s-.07,.07-.1,.11l-1.83,1.36H132.19l-2.09-1.53-17.27-14.38H387.17l-17.34,14.44Zm-273.84-19.78l4.43,3.74v146.76l-4.43,3.74V172.95Zm34.1,134.38l1.91-1.39h236.04l1.69,1.23s.06,.06,.09,.09l17.51,14.58H112.66l17.43-14.51Zm269.48,16.12V176.69l4.43-3.73v154.23l-4.43-3.74Zm10.43-155.55l11.02-9.29v182.93l-11.02-9.29V167.9Zm-15.63,4.4H105.62l-4.33-3.61H398.71l-4.33,3.61ZM105.45,327.84H394.55l4.17,3.47H101.29l4.17-3.47ZM405.85,162.69H94.15l-8.35-7.53H414.2l-8.35,7.53ZM72.98,346.71l-17.13,16.56V136.87l17.13,16.56v193.29Zm21.17-9.4H405.85l8.51,7.67H85.64l8.5-7.67ZM427.02,153.43l17.13-16.56v226.4l-17.13-16.56V153.43Zm-6.17-4.27H79.15l-19.35-17.46H440.2l-19.35,17.46ZM78.99,350.99H421.01l18.02,16.26H60.98l18.02-16.26Z"/></svg>