<svg xmlns="http://www.w3.org/2000/svg" data-name="Layer 1" viewBox="0 0 500 500" x="0px" y="0px"><path d="M452.13,190.45c-6.67-45.43-20.46-78.99-40.97-99.74-20.03-20.27-44.58-33.4-75.04-40.15-25.67-5.68-52.91-6.46-80.9-6.53l-.07-.46h-5.2c-5.44,0-116.89,.58-159.42,45.54-42.91,45.36-46.47,102.93-46.47,162.86,0,4.64,.43,114.05,44.99,157.2,43.25,41.88,96.19,46.36,155.85,46.58l.07,.46h5.19c5.45,0,116.89-.58,159.42-45.54,42.95-45.4,46.46-98.74,46.47-158.71,.08-2.25,.87-28.86-3.93-61.52Zm-13.87,139.52l-23.92-6.87,29.63-55.93c-.32,22.4-1.56,43.26-5.7,62.8Zm-35.23,70.11c-.71,.78-1.41,1.57-2.15,2.35-.32,.34-.65,.67-.98,1l-74.71-6.74,17.32-54.78,64.25-13.23-3.73,71.39Zm-70.41,34.61l-7.55-31.98,68.71,6.2c-15.7,12.49-38.41,20.57-61.16,25.78Zm-77.42,9.07h-5.14c-1.59,0-3.17,0-4.74,0l-59.42-43.71,64.19-27.18s.04-.02,.06-.03c.14-.06,.27-.13,.39-.21,.13,.08,.26,.15,.39,.21,.02,0,.04,.02,.06,.03l64.19,27.18-59.92,44.07-.06-.36Zm-148.29-34.82l69.09-6.23-8.17,34.61c-22.07-4.91-42.48-13.49-60.92-28.37ZM62.33,169.81l23.39,6.72-29.49,55.66c.43-21.89,1.87-42.75,6.09-62.38Zm34.69-70c.74-.82,1.46-1.64,2.23-2.45,.37-.39,.75-.77,1.13-1.15l74.5,6.72-17.32,54.78-64.25,13.22,3.72-71.13Zm70.46-34.7l7.51,31.81-68.46-6.18c15.69-12.41,38.3-20.44,60.95-25.64Zm77.38-9.44l.06,.36h5.15c1.98,0,3.95,0,5.91,.01l59.19,43.54-64.19,27.18s-.04,.03-.07,.04c-.09,.04-.18,.1-.27,.15-.08,.05-.17,.09-.25,.15-.07,.05-.14,.12-.21,.18-.05,.05-.11,.09-.16,.14-.05-.05-.1-.09-.16-.13-.07-.06-.14-.13-.22-.18-.08-.06-.16-.1-.24-.15-.09-.05-.18-.1-.27-.15-.02-.01-.04-.03-.07-.04l-64.19-27.18,59.68-43.9c.1,0,.2,0,.29,0Zm157.76,43.48c.13,.14,.26,.28,.4,.41l3.73,71.38-64.25-13.22-17.32-54.78,74.45-6.72c1.01,.96,2.01,1.92,3,2.93ZM251.16,367.28s-.04,.02-.07,.03c-.1,.04-.19,.08-.28,.13-.08,.04-.17,.08-.25,.13-.01,0-.02,.01-.03,.02,0,0-.02,0-.03-.02-.08-.05-.17-.09-.26-.14-.09-.04-.18-.09-.27-.13-.02,0-.05-.02-.07-.03l-86.69-30.32-33-87.87c-.03-.07-.07-.13-.1-.19-.05-.1-.09-.2-.15-.3,0,0,0-.02-.01-.03l32.26-85.89,86.69-30.32s.05-.03,.08-.04c.13-.05,.26-.11,.38-.18,.04-.02,.08-.04,.12-.07,.15-.09,.29-.19,.42-.31,.02-.02,.04-.04,.06-.06,.02-.02,.04-.04,.06-.06,.02,.02,.04,.04,.06,.06,.02,.02,.04,.04,.06,.06,.13,.12,.27,.22,.42,.31,.04,.02,.08,.04,.12,.07,.12,.07,.25,.13,.39,.18,.03,.01,.05,.03,.08,.04l86.69,30.32,32.73,87.14-32.73,87.14-86.69,30.32Zm84.34-23.14l-16.18,51.16-58.85-24.92,75.03-26.24Zm-237.41,57.07l-3.79-72.52,64.25,13.23,17.32,54.78-75.34,6.8c-.82-.75-1.64-1.51-2.45-2.28Zm28.95-143.47l29.13,77.55-60.68-12.49,31.55-65.06Zm-1-15.85l-31.55-65.06,60.68-12.49-29.13,77.55Zm39.51,102.25l75.03,26.24-58.85,24.92-16.18-51.16Zm-1-188.65l16.18-51.16,58.85,24.92-75.03,26.24Zm209.46,102.25l31.55,65.06-60.68,12.49,29.13-77.55Zm-29.13-93.4l60.68,12.49-31.55,65.06-29.13-77.55Zm-9.39-8.84l-75.03-26.24,58.85-24.92,16.18,51.16Zm-16.19-60.31l-53.09-39.05c21.89,.3,42.27,1.41,61.14,4.94l-8.05,34.11Zm-138.57,0l-7.4-31.36c23.24-4.85,45.88-6.85,60.46-7.68l-53.06,39.03Zm-57.05,155.62s.02,.03,.03,.05l-31.93,65.84-35.72-67.43c0-1.32,0-2.64,.01-3.95l33.91-64.01,33.71,69.5Zm-66.95,18.86l28.53,53.86-20.55,5.9c-4.95-22.7-7.08-44.97-7.98-59.76Zm125,134.79l53.32,39.22c-21.52-.3-42.04-1.45-61.36-5.15l8.04-34.07Zm137.57,0l7.44,31.53c-23.4,4.88-46.19,6.88-60.75,7.69l53.31-39.21Zm57.53-154.64l33.23-68.52,34.06,64.31c0,3.73-.07,5.89-.07,6.04v.22c0,.78,0,1.54,0,2.32l-33.98,64.15-33.23-68.52Zm37.49-73.29l21.86-6.28c5.23,23.49,7.06,46.49,7.66,62.01l-29.52-55.73Zm20.48-12.12l-22.07,6.34-3.33-63.8c12.29,15.85,20.25,36.62,25.4,57.46Zm-41.32-73.66l-68.43,6.18,8.18-34.67c22.24,4.85,42.32,13.43,60.25,28.49ZM90.62,107.41l-3.31,63.34-23.63-6.79c5.03-20.3,13.33-39.23,26.94-56.55Zm-24.55,227.87l22.24-6.39,3.42,65.43c-12.32-15.23-20.38-37.05-25.66-59.05Zm343.35,57.3l3.33-63.68,24.16,6.94c-4.98,20.24-13.39,39.06-27.49,56.74Z"/></svg>