<svg xmlns="http://www.w3.org/2000/svg" data-name="Layer 1" viewBox="0 0 500 500" x="0px" y="0px"><path d="M448.52,149.69l-20.67-23.11c-1.14-1.27-2.76-2-4.47-2H76.62c-1.71,0-3.33,.73-4.47,2l-20.67,23.11c-.98,1.1-1.53,2.52-1.53,4v192.62c0,1.48,.54,2.9,1.53,4l20.67,23.1c1.14,1.27,2.76,2,4.47,2H423.38c1.71,0,3.33-.73,4.47-2l20.67-23.1c.98-1.1,1.53-2.52,1.53-4V153.69c0-1.48-.54-2.9-1.53-4Zm-26.8,176.01V174.04l16.33-11.52v174.76l-16.33-11.58ZM78.28,174.04v151.58l-16.33,11.69V162.52l16.33,11.52Zm6,4.23l20.61,14.54v113.76l-20.61,14.75V178.27Zm287.79,30.79l17.04-12.02v105.55l-17.04-12.07v-81.46Zm-2.72-5.5h0l-8.99-6.96,.07,.04,16.33-15.18,10.42,9.6-17.82,12.49Zm2.08,1.71s-.07-.09-.11-.13l.11,.09v.05Zm-66.81,46.55l-10.75,1.59h-90.44l-8.06-1.5v-4.89l8.06-1.5h90.44l10.75,1.59v4.7Zm41.75,48.17H153.63l48.41-40.74,.58,.11c.18,.03,.36,.05,.55,.05h90.94l.44-.03,3.04-.45,48.79,41.07Zm-196.17-100.99h199.6l-54.16,40.71-1.1-.16-.44-.03h-90l-53.9-40.52Zm153.04,41.84l53-39.84,7.71,5.97-54.3,35.37c-.43-.4-.97-.68-1.59-.77l-4.83-.71Zm52.35-47.67c-.09-.03-.19-.07-.29-.09-.05-.01-.1-.02-.15-.03-.13-.02-.26-.04-.4-.04-.04,0-.07-.01-.11-.01H144.98l-13.57-12.5h237.78l-13.6,12.66Zm-210.57,8.78l51.55,38.75-4.74,.88c-.38,.07-.73,.22-1.04,.41l-53.29-34.18,7.53-5.86Zm44.36,46.11v2.35l-54.86,35.66v-73.19l54.86,35.18Zm1.06,8.64c.39,.33,.86,.56,1.39,.66l2.97,.55-48.7,40.99h0l-9.36-7.3,53.71-34.91Zm-44.27,49.28c.06,0,.11,.02,.17,.02h207.52l14.67,13.5H131.48l14.68-13.52Zm158.93-48.16l2.97-.44c.47-.07,.9-.26,1.27-.52l54.59,35.19-9.46,7.32-49.37-41.55Zm5.53-7.03v-2.12l55.44-36.11v73.97l-55.44-35.74Zm65.01-76.28H124.9l-17.85-16.44H393.29l-17.66,16.44Zm-252.14,6.73l17.05,15.7c.08,.23,.18,.45,.31,.65l-8.75,6.81c-.34-.15-.7-.24-1.06-.26l-18.35-12.95,10.81-9.97Zm-12.6,15.81l17.42,12.29,.2-.28v80.61l-17.62,12.61v-105.23Zm20.35,97.9l9.77,7.61-17.57,16.18-11.12-10.25,18.92-13.54Zm-6.28,30.56h250.07l17.85,16.44H107.11l17.85-16.44Zm251.53-6.71l-17.06-15.67h0l9.93-7.68,18.27,13.08-11.14,10.27Zm18.61-125.97l20.61-14.54v143.17l-20.61-14.6v-114.03Zm-2.91-5.27l-11.04-10.17,19.46-18.09,12.99,13.25-21.42,15.02Zm7.54-35.47H100.53l-16.82-15.49H416.38l-16.64,15.49Zm-300.24,7.07l19.56,18.01-11.4,10.51-21.36-15.06,13.19-13.45Zm7.85,152.9l11.68,10.76-19.56,18.01-13.33-13.59,21.21-15.18Zm-6.75,35.89H399.4l16.82,15.49H83.78l16.82-15.49Zm299.91-7.08l-19.58-17.99,11.69-10.78,21.21,15.18-13.33,13.59Zm37.22-185.23l-19.13,13.41-13.58-13.84,17.64-16.4,15.06,16.83Zm-360.36-16.86l17.72,16.32-13.74,14.02-19.08-13.46,15.1-16.88Zm-15.13,205.58l18.96-13.57,13.85,14.12-17.72,16.32-15.09-16.87Zm360.43,16.87l-17.74-16.3,13.84-14.12,18.97,13.58-15.07,16.84Z"/></svg>