<svg xmlns="http://www.w3.org/2000/svg" data-name="Layer 1" viewBox="0 0 500 500" x="0px" y="0px"><path d="M449.85,161.16c-.94-13.42-4.05-25.66-9.5-37.42v-.02c-9.71-20.95-26.33-38.71-46.81-49.98h-.01c-11-6.08-23.43-10.25-35.92-12.05-18.15-2.62-35.21,.25-41.72,1.61h0c-2.95,.61-6.68,1.45-12.02,3.04-5.01,1.49-12,3.77-21.71,8.17-10.17,4.61-17.93,9.15-22.88,12.16-3.73,2.27-6.74,4.22-9.28,5.92-2.53-1.7-5.53-3.65-9.27-5.92-4.95-3.01-12.72-7.55-22.88-12.16-9.71-4.4-16.71-6.68-21.72-8.17-5.33-1.59-9.06-2.43-12.01-3.04h0c-8.07-1.69-24.22-4.14-41.71-1.61-12.5,1.81-24.92,5.97-35.92,12.04h-.01c-20.48,11.28-37.1,29.03-46.8,49.98h0c-5.46,11.78-8.57,24.03-9.51,37.45-1.25,17.85,1.66,32.34,3.96,41.69h0c3.84,15.61,8.68,28.15,17.24,44.73h0c8.26,15.97,17.01,29.63,30.18,47.15,11.94,15.87,24.35,30.56,40.25,47.6h0c12.36,13.24,24.83,25.72,39.23,39.26h0c20.84,19.6,41.57,37.55,65.23,56.48h.01c.25,.2,.51,.37,.77,.53,.06,.04,.12,.07,.19,.1,.25,.13,.51,.25,.77,.34,.02,0,.04,.02,.07,.03,.27,.09,.55,.16,.84,.21,.08,.02,.16,.03,.24,.04,.28,.04,.56,.07,.85,.07h.04c.28,0,.57-.03,.85-.07,.08-.01,.16-.02,.24-.04,.28-.05,.56-.12,.84-.21,.02,0,.04-.02,.06-.03,.26-.09,.52-.21,.77-.34,.06-.03,.12-.07,.19-.1,.27-.15,.53-.32,.77-.52h.01c23.66-18.95,44.39-36.9,65.23-56.49h0c14.41-13.55,26.87-26.03,39.22-39.26h0c15.9-17.05,28.32-31.74,40.25-47.61h0c13.17-17.52,21.92-31.18,30.18-47.14h0c8.57-16.58,13.4-29.13,17.25-44.74h0c2.3-9.36,5.21-23.85,3.96-41.69ZM181.67,75.04h.01c1.44,.3,3.1,.66,5.07,1.16l56.76,46.48-60.53,15.51-50.68-18.11,48.8-45.15c.19,.04,.4,.08,.57,.12Zm131.58,1.16c1.97-.49,3.63-.85,5.07-1.15h.01c.17-.04,.38-.08,.57-.12l48.8,45.15-50.68,18.11-60.53-15.51,56.76-46.48Zm104.74,165.87h0c-.27,.53-.55,1.04-.82,1.56l-60.09,19.09,.14-50.82,36.49-21.18,24.62,50.69c-.11,.22-.22,.43-.34,.66Zm-335.97,0h0c-.11-.22-.22-.44-.33-.66l24.62-50.69,36.48,21.18,.14,50.82-60.09-19.09c-.27-.52-.55-1.04-.82-1.56Zm-17.05-45.48c-1.91-8.5-3.84-20.43-2.84-34.6,.65-9.35,2.51-18.04,5.59-26.38l32.63,49.28-35.38,11.7Zm224.17,90.29l-39.13,28.13-39.13-28.13-62.47-78.22-18.44-46.83,52.99-17.39,66.33,16.11s.03,0,.05,0c.03,0,.07,.02,.1,.02,.18,.03,.37,.06,.56,.06h0c.19,0,.37-.02,.56-.06,.04,0,.07-.01,.1-.02,.02,0,.03,0,.04,0l66.33-16.11,53,17.39-18.44,46.83-62.47,78.23Zm85.74-120.97l15.62,19.74-30.32,17.6,14.7-37.34Zm-3.95-10.11l-44.51-14.61,44.02-15.73,.48,30.33Zm-117.92-1.99v-25.84l51.77,13.27-51.77,12.57Zm-6,0l-51.77-12.57,51.77-13.27v25.84Zm-117.92,1.99l.48-30.33,44.02,15.73-44.51,14.61Zm-3.95,10.11l14.7,37.34-30.32-17.6,15.62-19.74Zm23.8,98.79l-.13-45.94,51.09,63.97-50.96-18.04Zm96.1,54.12l-23.05,18.27-8.66-41.07,31.71,22.8Zm4.98,3.71l26.46,20.97-26.46,80.3-26.46-80.3,26.46-20.97Zm4.98-3.71l31.71-22.8-8.66,41.07-23.05-18.27Zm96.23-100.05l-.13,45.94-50.96,18.04,51.08-63.97Zm86.68-56.78c.99,14.17-.94,26.1-2.84,34.6l-35.38-11.7,32.63-49.28c3.09,8.34,4.94,17.03,5.59,26.38Zm-8.41-33.19s.03,.08,.05,.11l-34.74,52.48-17.8-22.5-.55-34.41,53.05,4.31Zm-306.45,30.1l-17.8,22.5-34.74-52.48s.03-.08,.05-.11l53.04-4.31-.55,34.41Zm-23.82,32.68l-20.9,43.04c-5.45-11.35-9.02-21.04-11.92-32.19l32.82-10.86Zm39.57,76.12l-29.1,17.85c-9.39-12.61-16.41-23.19-22.69-34.31l51.8,16.46Zm4.18,4.48l.18,53.89c-11.26-12.42-20.75-23.78-29.84-35.7l29.66-18.19Zm7.61,61.97h0c-.47-.51-.94-1.01-1.4-1.51l-.21-61.55,57.24,20.26,10.1,47.89-64.4-3.68c-.44-.47-.89-.94-1.33-1.42Zm91.66,85.21c-17.89-14.68-34.27-29.03-50.64-44.33l27.14-27.02,23.51,71.35Zm39.07-71.35l27.13,27.02c-16.37,15.3-32.75,29.64-50.64,44.33l23.51-71.35Zm12.52-56.67l57.24-20.26-.21,61.55c-.47,.51-.93,1.01-1.41,1.52h0c-.44,.47-.89,.94-1.33,1.41l-64.4,3.68,10.1-47.89Zm63.06,34.73l.18-53.89,29.66,18.19c-9.09,11.91-18.58,23.27-29.84,35.69Zm33.47-40.51l-29.11-17.85,51.8-16.46c-6.28,11.12-13.3,21.7-22.69,34.31Zm31.36-50.93l-20.9-43.04,32.82,10.86c-2.89,11.15-6.47,20.83-11.92,32.19Zm4.56-112.1l-48.55-3.95,13.26-32.48c14.56,8.79,27.05,21.71,35.29,36.43Zm-70.37-48.97c10.31,1.49,20.56,4.81,29.79,9.61l-13.45,32.93-45.85-42.42c7.55-1.01,18.32-1.73,29.5-.12Zm-90.37,23.35c5.08-3.09,12.13-7.19,21.6-11.48,4.15-1.88,7.75-3.34,10.9-4.5l-45,36.85v-12.74c.13-.08,.27-.15,.4-.24h.01c3.01-2.09,6.81-4.66,12.1-7.88Zm-31.02,0c5.3,3.23,9.09,5.79,12.09,7.87h.01c.13,.1,.27,.17,.4,.25v12.74l-45-36.85c3.14,1.17,6.75,2.63,10.9,4.51,9.46,4.29,16.51,8.39,21.6,11.48Zm-90.37-23.35c11.17-1.61,21.94-.89,29.49,.12l-45.85,42.42-13.44-32.93c9.24-4.79,19.48-8.12,29.8-9.61Zm-35.08,12.54l13.26,32.48-48.55,3.95c8.24-14.71,20.73-27.64,35.29-36.43Zm48.88,255.82l55.24,3.15-25.96,25.85c-10.53-9.96-20.04-19.38-29.28-29Zm154.87,29l-25.96-25.85,55.24-3.15c-9.23,9.62-18.74,19.04-29.28,29Z"/></svg>