<svg xmlns="http://www.w3.org/2000/svg" data-name="Layer 1" viewBox="0 0 500 500" x="0px" y="0px"><path d="M359.25,249.99c-.01-6.78-.25-13.55-.75-20.13-.52-6.77-1.32-13.53-2.37-20.07-1.09-6.74-2.48-13.41-4.14-19.84h0c-1.66-6.44-3.67-12.96-5.97-19.38-2.23-6.23-4.8-12.53-7.63-18.72-2.74-6-5.8-12.05-9.08-17.98h0c-9.37-17.01-21.32-33.48-34.56-47.64h-.01c-12.19-13.09-26.48-25.26-41.32-35.19h0c-.17-.11-.33-.22-.51-.31h-.03c-.15-.1-.31-.17-.47-.24-.39-.17-.8-.29-1.21-.37h0c-.15-.03-.31-.05-.47-.07-.04,0-.08-.01-.13-.02-.12-.01-.24-.01-.36-.02-.08,0-.16-.01-.24-.01-.08,0-.16,0-.24,.01-.12,0-.24,0-.36,.02-.04,0-.09,.01-.13,.02-.15,.02-.31,.04-.46,.07h-.02c-.38,.08-.76,.19-1.13,.35-.37,.15-.73,.34-1.07,.57h0c-14.84,9.93-29.13,22.1-41.33,35.19h0c-13.24,14.16-25.19,30.62-34.56,47.63h0c-3.28,5.94-6.34,11.99-9.08,17.99-2.83,6.19-5.39,12.49-7.63,18.72-2.31,6.44-4.31,12.96-5.97,19.38-1.66,6.42-3.05,13.09-4.14,19.84-1.06,6.53-1.85,13.28-2.37,20.07-.5,6.53-.75,13.25-.75,19.97v.16h0v.16c0,6.73,.25,13.45,.75,19.98,.52,6.79,1.32,13.55,2.37,20.07,1.09,6.75,2.49,13.42,4.14,19.84,1.66,6.42,3.66,12.94,5.97,19.38,2.24,6.23,4.8,12.53,7.63,18.72,2.74,5.99,5.79,12.04,9.07,17.97h0c9.37,17.02,21.32,33.49,34.56,47.64h0c12.2,13.09,26.49,25.26,41.33,35.19h.01c.14,.1,.29,.19,.44,.27,.03,.02,.06,.04,.09,.05,.11,.06,.22,.11,.33,.16,.59,.27,1.21,.44,1.83,.51,.03,0,.07,.01,.1,.01,.12,.01,.24,.01,.37,.02,.08,0,.16,.01,.24,.01,.08,0,.16,0,.24-.01,.12,0,.24,0,.37-.02,.03,0,.07-.01,.1-.01,.61-.07,1.22-.24,1.81-.5,.12-.05,.24-.11,.36-.17,.02-.01,.05-.03,.07-.04,.16-.09,.31-.18,.46-.28h.01c14.84-9.94,29.13-22.1,41.32-35.18h.01c13.24-14.17,25.2-30.64,34.56-47.64h0v-.02h0c3.29-5.94,6.34-11.98,9.07-17.97,2.83-6.19,5.4-12.49,7.63-18.72,2.3-6.42,4.31-12.94,5.97-19.38h0c1.66-6.43,3.05-13.11,4.14-19.85,1.06-6.55,1.86-13.3,2.37-20.07,.5-6.51,.75-13.21,.75-19.92v-.22h0Zm-25.68,24.73h0l-13.75,21.38-18.33-46.11,18.33-46.11,13.75,21.38,13.38,20.81c.02,1.23,.03,2.47,.03,3.7,0,.07,.01,.12,0,.22h0c0,1.32-.02,2.62-.04,3.93l-13.37,20.8Zm-15,85.46h0c-1.04,1.9-2.12,3.78-3.22,5.66l-33.88,25.77,.05-49.15,35.11-33.07,1.88,23.81h0l1.87,23.67c-.59,1.11-1.18,2.21-1.79,3.31Zm-68.58,76.22c-.6-.42-1.19-.86-1.78-1.28l-22.38-36.31,24.17-14.74,24.17,14.74-22.38,36.31c-.6,.42-1.19,.86-1.78,1.28Zm-83.57-161.68h0l-13.38-20.81c-.02-1.25-.04-2.51-.04-3.76,0-.05,.02-.1,0-.16h0c0-1.31,0-2.61,.03-3.91l13.39-20.82,13.75-21.38,18.33,46.11-18.33,46.11-13.75-21.37Zm14.99-134.93h0c1.04-1.9,2.12-3.78,3.22-5.66l33.88-25.77-.05,49.15-35.1,33.07-1.88-23.81h0l-1.87-23.67c.59-1.11,1.18-2.21,1.79-3.31ZM250,63.59c.6,.42,1.19,.86,1.78,1.28l22.39,36.31-24.17,14.74-24.17-14.74,22.38-36.31c.6-.42,1.19-.86,1.78-1.28Zm25.59,276.28l-25.59,35.39-25.59-35.39-19.46-89.87,19.46-89.86,25.59-35.39,25.59,35.39,19.46,89.86-19.46,89.87Zm-21.16-219.47l20.91-12.75,.04,41.72-20.95-28.97Zm-29.8,28.97l.04-41.72,20.91,12.75-20.95,28.97Zm-23.68,90.15l-16.5-41.5,32.02-30.16-15.52,71.66Zm15.52,92.62l-32.02-30.16,16.5-41.5,15.52,71.66Zm29.11,47.46l-20.91,12.75-.04-41.72,20.95,28.97Zm29.8-28.97l-.04,41.72-20.91-12.75,20.95-28.97Zm23.68-90.15l16.5,41.5-32.02,30.16,15.52-71.66Zm-15.52-92.62l32.02,30.16-16.5,41.5-15.52-71.66Zm35.03-28.07h0c.61,1.11,1.2,2.22,1.79,3.32l-1.87,23.67h0l-1.88,23.82-35.11-33.07-.05-49.15,33.88,25.77c1.11,1.87,2.18,3.75,3.22,5.64Zm-137.14,220.41h0c-.61-1.11-1.2-2.22-1.79-3.32l1.87-23.66h0l1.88-23.82,35.1,33.07,.05,49.15-33.88-25.77c-1.11-1.87-2.18-3.75-3.22-5.64Zm153.04-185.49c2.18,6.07,4.07,12.23,5.64,18.3h0c1.56,6.07,2.88,12.37,3.91,18.74,1,6.21,1.76,12.62,2.25,19.05,.08,1.07,.15,2.14,.21,3.22l-7.76-12.07-16.41-25.52,2.3-29.16h0l1.07-13.61c.52,1.1,1.04,2.19,1.54,3.29,2.69,5.88,5.12,11.86,7.24,17.76Zm-28.9-55.69l-22.52-17.13,4.92-4.89c6.25,6.88,12.16,14.29,17.6,22.02Zm-21.79-26.5l-4.81,4.78-13.44-21.8c6.42,5.36,12.55,11.08,18.25,17.03Zm-49.32-17.02l-13.44,21.8-4.8-4.77c5.69-5.95,11.83-11.66,18.24-17.02Zm-22.44,21.5l4.92,4.89-22.52,17.13c5.43-7.73,11.35-15.14,17.59-22.02Zm-56.04,114.76c1.03-6.38,2.35-12.68,3.91-18.74,1.56-6.06,3.46-12.22,5.64-18.3,2.12-5.91,4.56-11.89,7.24-17.76,.5-1.09,1.02-2.19,1.54-3.29l1.07,13.59v.02l2.3,29.16-16.41,25.52-7.76,12.07c.07-1.08,.13-2.15,.22-3.22,.49-6.45,1.25-12.86,2.25-19.05Zm9.55,113.54c-2.18-6.08-4.08-12.24-5.64-18.3-1.56-6.06-2.88-12.36-3.91-18.74-1-6.19-1.76-12.6-2.25-19.05-.08-1.06-.15-2.14-.21-3.22l7.76,12.06h0l16.41,25.53-2.3,29.16v.02l-1.07,13.59c-.52-1.1-1.04-2.19-1.54-3.29-2.69-5.88-5.12-11.85-7.24-17.76Zm28.9,55.69l22.52,17.13-4.92,4.89c-6.24-6.88-12.16-14.29-17.59-22.02Zm21.79,26.49l4.8-4.77,13.44,21.8c-6.42-5.36-12.55-11.08-18.24-17.02Zm49.32,17.02l13.44-21.8,4.8,4.77c-5.69,5.95-11.82,11.66-18.24,17.02Zm22.44-21.5l-4.92-4.89,22.52-17.13c-5.43,7.73-11.35,15.14-17.6,22.02Zm56.04-114.76c-1.03,6.37-2.35,12.68-3.91,18.74h0c-1.57,6.08-3.46,12.23-5.64,18.3-2.12,5.91-4.55,11.89-7.24,17.76-.5,1.09-1.02,2.19-1.54,3.29l-1.07-13.61h0l-2.3-29.16,16.41-25.52h0l7.75-12.07c-.07,1.07-.13,2.15-.21,3.21-.49,6.43-1.25,12.84-2.25,19.05Z"/></svg>