<svg xmlns="http://www.w3.org/2000/svg" data-name="Layer 1" viewBox="0 0 500 500" x="0px" y="0px"><path d="M416.76,251.61c-.25-27.54-4.58-53.31-13.24-78.77h0v-.03c-9.1-26.32-21.1-47.81-37.76-67.63h0c-15.79-18.94-33.04-32.93-54.31-44.03-.02,0-.03-.01-.05-.02-.02,0-.03-.02-.05-.03-20.62-10.29-40.5-15.12-62.54-15.2-22.83-.09-43.17,4.86-64.02,15.56h-.01l-.03,.02h-.02c-20.81,10.5-37.77,24.42-53.36,43.81h0c-16.03,19.77-27.41,41.05-35.83,66.96h0c-8.04,24.44-11.96,49.15-11.96,75.47,0,.9,0,1.8,.01,2.7h0c.12,27.52,4.44,53.26,13.22,78.7h0c8.56,25.15,20.37,46.77,36.1,66.1h0v.02h.02c16.05,19.89,33.4,34.07,54.57,44.62h0s.08,.04,.12,.06h0c21.3,11.22,41.71,16.41,64.21,16.33h.03s.02,0,.02,0c23.74-.31,44.18-5.53,64.29-16.42h.01s.05-.03,.08-.05h.02c20.43-10.67,37.25-24.71,52.91-44.2h0v-.02c15.78-19.8,27.04-41.08,35.47-66.97h0v-.03c7.97-24.89,11.92-50.04,12.07-76.89v-.03h0v-.05Zm-113.46-2.69l-46.39-.22,81.26-41.16,.09,12.82-34.79,28.37c-.07,.06-.12,.12-.18,.19Zm-26.3,110.46l-23.21-44.68c-.11-.21-.27-.39-.44-.55l-.4-52.31,33.2,97.57-9.15-.03Zm-24.65-175.24l23.05-46.25,8.63,.03-31.28,98.98-.4-52.76Zm-.07-8.83l-.29-37.49,18.94,.06-18.66,37.43Zm-3.99,1.19l-20.59-38.76,20.29,.06,.3,38.69Zm.04,8.61s.02,.02,.02,.03l.4,52.09-34.21-99.52,8.62,.03,25.16,47.38Zm1.03,131.29l-21.96,42.82-10.31-.03,31.85-97.37,.42,54.59Zm.07,8.64l.26,34.25-17.8-.06,17.54-34.19Zm3.98-2.38l19.07,36.71-18.79-.06-.28-36.64Zm84.73-119.89v.3l-80.14,40.59,31.23-39.79,41.3-10.47,7.61,9.37Zm-44.87-4.05l20.44-26.05,14.05,17.31-34.49,8.74Zm-2.23-3.64l6.53-42.29,13.55,16.7-20.08,25.59Zm-5.04,6.42l-29.91,38.12,31.38-99.29,6.71,8.27-8.17,52.9Zm-6.21-71.59h-.42l.17-.35,.24,.35Zm3.84-8.54l15.38-30.86-11.52,36.46-3.86-5.6Zm-8.72,8.52l-22.99-.07-.31-40.84,25.34,36.81-2.04,4.1Zm-26.99-.08l-24.48-.08-2.12-4,26.29-37.58,.32,41.66Zm-29.02-.09h-.38l.21-.31,.16,.31Zm-8.11-2.9l-12.05-35.06,15.79,29.72-3.73,5.34Zm.25,13.05l34.27,99.69-29.35-36-10.7-56.49,5.78-7.21Zm-.38,57.19l-22.92-28.11,14.23-17.76,8.69,45.87Zm-1.69,4.25l-38.65-10.61,14.87-18.56,23.78,29.17Zm4.36,5.34l30.02,36.82-82.03-41.54,6.28-7.84,45.73,12.56Zm31.36,41.99l-46.47-.22-36.89-29.4-.09-12.64,83.45,42.26Zm-52.92-.25l-30.23-.14-.17-24.08,30.4,24.22Zm-.25,4l-29.78,23.8-.17-23.94,29.95,.14Zm6.37,.03l42.7,.2-78.72,41.09-.09-12.43,36.11-28.86Zm45.6,3.2l-29.04,36.78-44.02,12.49-6.34-7.82,79.41-41.45Zm-33.28,42.13l-22.49,28.47-14.56-17.96,37.05-10.51Zm1.74,4.25l-7.68,44.61-13.96-17.21,21.64-27.4Zm5.19-6.57l28.32-35.86-32.13,98.22-5.71-7.04,9.52-55.31Zm2.97,71.76h3.19l-1.37,2.68-1.82-2.68Zm-2.34,10.79l-18.86,36.78,14.25-43.57,4.61,6.79Zm10.02-10.77l21.96,.07,.34,44.05-25.59-37.69,3.3-6.43Zm25.96,.09l22.89,.08,2.36,4.54-24.91,39.17-.34-43.78Zm27.4,.09h.72l-.4,.63-.33-.63Zm8.57,2.56l13.75,40.4-17.73-34.14,3.99-6.27Zm-33.32-110.34l29.8,37.1,9.5,52.12-6.28,7.83-33.02-97.05Zm35.06,43.64l20.4,25.4-12.85,16.03-7.55-41.43Zm1.2-4.89l35.61,9.82-13.84,17.27-21.76-27.1Zm-4.21-5.31s-.04,0-.06,0l-30.06-37.42,79.25,40.95-6.59,8.22-42.54-11.73Zm-27.05-40.34l43.43,.21,33.85,27.11,.09,12.66-77.37-39.98Zm49.87,.24l27.22,.13,.16,21.79-27.38-21.92Zm-1.74-4.01l28.76-23.46,.17,23.59-28.93-.14Zm36.71-29.94l3.72-3.04,30.17,33.32-33.67-.16-.22-30.12Zm-.04-5.13v-2.07l1.07,1.2-1.07,.87Zm2.21-11.53l31.47-15.94-26.41,21.54-5.07-5.6Zm-2.17-3.38l.5-9.67,37.23-9.44-37.73,19.11Zm-9.96-11.15l-17.53-21.59,22.64-28.85-2.56,49.8-2.55,.65Zm-20.11-24.78l-16.97-20.91,.8-5.16,39.01-3.04-22.84,29.1Zm-20.37-25.09l-.49-.61,.59-.05-.1,.65Zm-4.99-8.28l12.26-38.79-5.92,38.3-6.34,.49Zm-9.8-12.05l-24.95-36.24,47.93-9.85-22.97,46.09Zm-63.93,.19l-24.37-45.89,49.81,9.52-25.44,36.37Zm-9.65,11.62l-5.61-.44-6.7-35.39,12.31,35.83Zm-7.44,11.42l-17.44,21.76-23.6-28.95,40.28,3.15,.76,4.04Zm-20,24.96l-18.1,22.59-1.7-.47-4.04-51.38,23.85,29.25Zm-27.06,31.91l-32.9-16.66,32.28,8.86,.61,7.79Zm-1.64,3.65l-4.96,5.73-28.39-22.62,33.35,16.89Zm1.96,9.96v1.3l-.66-.54,.66-.77Zm.05,6.44l.22,30.45-32.07-.15,28.53-32.95,3.33,2.65Zm.25,34.45l.22,30.34-1.77,1.42-30.87-31.91,32.42,.15Zm.25,45.13l-.02,.59-37.03,19.33,31.77-25.39,5.29,5.47Zm-.2,5.2l-.28,7.21-29.65,8.41,29.93-15.62Zm7.85,4.02l.58,.72-.61,.17,.03-.89Zm3.32,4.1l17.86,22.02-23.34,29.56,1.97-50.57,3.52-1Zm20.44,25.2l17.24,21.25-.59,3.41-40.22,5.17,23.56-29.84Zm24.93,31.67l-11.44,34.97,5.9-34.26,5.54-.71Zm10.18,14.25l25.19,37.09-49.57,10.44,24.38-47.53Zm62.93-1.63l25.63,49.35-50.25-10.65,24.61-38.7Zm10.03-12.11l6.06,.81,6.68,36.64-12.74-37.46Zm3.4-7.62l.91-1.14,.24,1.29-1.15-.15Zm4.23-5.27l16.08-20.07,25.25,31.44-40.24-5.39-1.09-5.99Zm18.64-23.26l17.1-21.35,3.22,.89,3.66,50.32-23.98-29.86Zm19.83-24.74l.17-.21,.02,.26-.19-.05Zm7.8-5.57l32.06,16.57-31.49-8.69-.57-7.88Zm.45-4.27l5.59-5.6,29.87,23.92-35.46-18.32Zm-.9-10.42v-.38l.21,.17-.21,.21Zm-.04-5.53l-.2-28.2,33.75,.16-30.46,30.51-3.09-2.47Zm9.48-70.42l36.79-30.01-8.19,61.59-28.6-31.59Zm-9.22-25.8l2.43-47.29,41.44,36.17-43.87,11.12Zm-45.7-56.26l8.2-53.1,29.64,50.16-37.85,2.95Zm-48.02-55.06l-.36-15.79c13.61,.47,26.4,3,39.22,7.8l-38.86,7.99Zm-8,.03l-41.17-7.87c13.21-5.06,26.51-7.65,40.81-7.99l.36,15.86Zm-47.54,54.85l-39.51-3.09,29.3-50.82,10.21,53.91Zm-45.7,57.01l-44.14-12.12,40.34-36.12,3.79,48.24Zm-8.28,24.44l-27.13,31.34-10.31-61.17,37.44,29.84Zm2,78.86l-38.07,30.42,9.14-60.32,28.92,29.9Zm-37.14,37.61l44.58-12.65-1.88,48.4-42.46-35.07c-.08-.23-.16-.45-.24-.68Zm91.86,42.17l-9.97,57.92-29.17-52.88,39.14-5.03Zm47.65,57.73l-.23,17.75c-14.65-.38-28.06-3.21-41.85-8.89l42.08-8.86Zm8-.02l41.68,8.83c-13.17,5.38-26.82,8.26-41.91,8.87l.23-17.7Zm47.41-57.08l38.41,5.14-28.16,51.07-10.25-56.22Zm44.55-55.73l44.82,12.36c-.12,.36-.24,.72-.36,1.07l-40.87,35.92-3.59-49.36Zm8-24.83l28.77-28.82,8.91,58.99-37.68-30.18Zm48.6-41.19l-12.5-.05,6.43-48.33c3.66,15.7,5.66,31.71,6.07,48.38Zm-19.86-89.53l-33.56-29.29,8.76-11.66c9.97,12.55,18.08,25.91,24.8,40.95Zm-30.05-47.29l-8.54,11.38-24.05-40.69c11.99,8.1,22.62,17.68,32.59,29.31Zm-180.31-29.47l-23.38,40.56-8.68-11.16c9.85-11.9,20.31-21.51,32.06-29.4Zm-37.2,35.83l8.86,11.39-32.31,28.92c6.28-14.74,13.94-27.89,23.45-40.31Zm-36.23,80.06l8.3,49.23-13.79-.06c.09-16.96,1.9-33.22,5.49-49.16Zm-5.43,57.16l13.81,.06-7.51,49.54c-3.88-16.09-5.96-32.5-6.3-49.6Zm19.18,88.16l34.54,28.53-10.39,12.46c-9.76-12.64-17.65-26.01-24.15-41Zm29.26,47.36l10.24-12.29,23.75,43.05c-12.46-8.13-23.53-18.17-33.99-30.76Zm181.94,30.06l22.86-41.46,9.25,11.66c-9.95,12.04-20.42,21.78-32.11,29.79Zm37.19-36.25l-9.44-11.91,32.78-28.82c-6.28,14.89-13.91,28.18-23.34,40.73Zm36.12-81.46l-7.06-46.69,12.43,.05c-.33,16.05-2.1,31.48-5.37,46.64Z"/></svg>