<svg xmlns="http://www.w3.org/2000/svg" data-name="Layer 1" viewBox="0 0 500 500" x="0px" y="0px"><path d="M375.91,158.76c0-.06-.02-.12-.03-.18,0-.03,0-.06,0-.1-3.39-22.21-12.15-42.43-26.03-60.09v-.02l-.03-.02c-12.44-15.6-27.9-27.82-45.95-36.32h-.03c-17.11-7.95-35.22-12-53.82-12.03h-.02c-18.6,.03-36.71,4.08-53.82,12.02h-.01l-.03,.02c-18.05,8.5-33.5,20.71-45.94,36.31v.02h-.03c-13.88,17.68-22.64,37.9-26.03,60.11,0,.04,0,.09-.01,.13,0,.05-.02,.09-.02,.14-2.4,23.05-1.26,44.34,3.6,67h0v.06h.01c4.06,19.82,9.61,38.66,16.97,57.61h0v.03h.01c5.86,15.38,12.69,30.63,20.28,45.34h0v.03h.01c8.95,17.55,18.95,34.8,29.73,51.3h0v.02c9.17,13.9,19.84,28.8,30.89,43.1,6.72,8.7,13.43,17.01,19.95,24.68,.04,.04,.08,.08,.11,.12,.07,.08,.14,.15,.21,.22,.08,.08,.16,.15,.24,.22,.04,.03,.07,.07,.11,.1,.03,.02,.05,.04,.08,.06,.09,.08,.19,.15,.28,.22,.06,.05,.13,.09,.19,.13,.09,.06,.19,.12,.29,.18,.07,.04,.15,.09,.22,.12,.09,.05,.18,.09,.27,.13,.09,.04,.17,.08,.26,.11,.08,.03,.17,.06,.25,.09,.1,.03,.19,.07,.29,.1,.08,.02,.16,.04,.24,.06,.1,.03,.21,.05,.31,.07,.08,.02,.16,.03,.24,.04,.1,.02,.21,.03,.31,.04,.09,0,.17,.01,.26,.02,.1,0,.19,0,.29,0,.09,0,.19,0,.28,0,.09,0,.18,0,.27-.02,.1,0,.2-.02,.3-.04,.08-.01,.17-.02,.25-.04,.1-.02,.2-.04,.3-.07,.08-.02,.17-.04,.25-.06,.1-.03,.19-.06,.28-.09,.09-.03,.17-.06,.26-.09,.09-.03,.17-.07,.25-.11,.09-.04,.18-.09,.27-.13,.07-.04,.15-.08,.22-.13,.1-.06,.19-.11,.28-.18,.07-.04,.13-.09,.2-.14,.09-.07,.19-.14,.28-.21,.03-.02,.05-.04,.08-.06,.04-.03,.07-.07,.1-.1,.09-.08,.18-.17,.27-.26,.07-.07,.13-.14,.2-.21,.03-.04,.07-.07,.1-.1,6.54-7.7,13.25-16,19.95-24.68,11.04-14.3,21.72-29.2,30.88-43.1h0v-.02c10.78-16.49,20.78-33.74,29.73-51.29h0v-.02h.01c7.59-14.72,14.42-29.99,20.29-45.37h0c7.36-18.96,12.91-37.8,16.97-57.61h0v-.06h.01c3.23-15.04,4.81-29.47,4.81-44.22,0-7.47-.41-15.03-1.22-22.78Zm-51.27,164.7h0v.02c-.3,.57-.6,1.15-.9,1.72l-59.48,22.08,11.92-48.28,35.6-32.15,13.81,54.73c-.32,.62-.63,1.25-.95,1.87Zm-149.26,.02h0v-.02c-.33-.62-.64-1.25-.96-1.87l13.81-54.73,35.6,32.15,11.92,48.28-59.48-22.08c-.3-.57-.6-1.15-.89-1.72Zm-20.5-153.4l-18.16,39.99c-2.28-15.29-2.73-30.22-1.39-45.93l19.55,5.94Zm4.46-64.46c.12-.15,.24-.29,.35-.43l53.82,2.12-14.52,36-37.28,20.04-3.62-56.1c.41-.54,.81-1.09,1.24-1.63Zm181.34,0c.42,.53,.82,1.08,1.23,1.62l-3.62,56.1-37.28-20.04-14.52-36,53.82-2.12c.12,.15,.24,.29,.36,.44Zm-87.17,229.1l12.62-20.02-7.25,29.38-5.36-9.35Zm-12.36,9.36l-7.25-29.38,12.62,20.02-5.36,9.36Zm8.86-282.39c.09,0,.18,0,.27,0l27.41,41.51-27.68,12.66-27.68-12.66,27.41-41.51c.09,0,.18,0,.27,0Zm20.76,234.39l-20.76,32.95-20.76-32.95-32.15-92.42,7.06-56.31,45.85-24.77,45.85,24.77,7.06,56.31-32.15,92.43Zm-14.03-176.69l23.78-10.87,12.23,30.33-36.01-19.46Zm-13.45,0l-36.01,19.46,12.23-30.33,23.78,10.87Zm-51.45,78.05l-27.87-28.48,33.71-18.12-5.84,46.6Zm28.01,89.88l-30.13-27.2,5.65-43.18,24.48,70.38Zm84.8-70.38l5.65,43.18-30.12,27.2,24.48-70.38Zm3.53-19.5l-5.84-46.6,33.71,18.12-27.87,28.48Zm-50.54-135.47c13.15,.89,26,4.01,38.3,9.32l-14.14,27.27-24.17-36.6Zm-39.44,36.6l-14.14-27.27c12.31-5.32,25.15-8.43,38.3-9.32l-24.17,36.6Zm-79.06,124.84v-.06c-.21-.94-.4-1.88-.59-2.82l21.39-47.1,30.92,31.6-6.67,50.99-44.68-30.87c-.12-.58-.26-1.16-.38-1.74Zm110.86,117.28l6.9,12.03-6.89,63.59-6.9-63.59,6.9-12.03Zm59.13-135.66l30.92-31.6,21.39,47.1c-.19,.94-.38,1.88-.58,2.82v.06c-.13,.58-.26,1.16-.39,1.74l-44.68,30.87-6.67-50.99Zm54.15,5.03l-18.16-39.99,19.55-5.94c1.34,15.71,.9,30.64-1.39,45.93Zm.66-51.97l-19.7,5.98,3.16-48.95c8.35,13.08,13.9,27.48,16.55,42.97Zm-28.64-58.71l-48.16,1.9,14.23-27.45c12.89,6.43,24.26,15,33.93,25.56Zm-136.7-25.56l14.23,27.45-48.16-1.9c9.67-10.55,21.05-19.13,33.93-25.56Zm-46.02,41.3l3.15,48.95-19.7-5.98c2.65-15.49,8.19-29.89,16.55-42.97Zm-11.15,118.65l39.4,27.22-26.61,14.66c-5.2-13.83-9.43-27.65-12.79-41.88Zm14.95,47.54l25.54-14.07-11.63,46.08c-5.07-10.5-9.73-21.22-13.91-32.01Zm24.05,51.83l52.75,19.59-30.25,18.6c-7.99-12.38-15.53-25.17-22.5-38.18Zm25.8,43.2l31.3-19.24,7.84,72.3c-3.49-4.31-7.01-8.75-10.54-13.32-10.17-13.17-20-26.84-28.6-39.74Zm58.91,39.74c-3.52,4.56-7.04,9-10.54,13.31l7.84-72.3,31.3,19.24c-8.6,12.9-18.43,26.57-28.6,39.74Zm31.89-44.76l-30.25-18.6,52.75-19.59c-6.98,13.02-14.52,25.81-22.51,38.18Zm32.65-58.01l-11.63-46.08,25.54,14.07c-4.18,10.79-8.84,21.52-13.91,32.01Zm16.07-37.67l-26.6-14.66,39.4-27.22c-3.36,14.23-7.59,28.05-12.79,41.88Z"/></svg>