<svg xmlns="http://www.w3.org/2000/svg" viewBox="0 0 500 500" x="0px" y="0px"><g data-name="Layer 1"><path d="M444.33,49.67H55.67c-3.31,0-6,2.69-6,6V444.33c0,3.31,2.69,6,6,6H444.33c3.31,0,6-2.69,6-6V55.67c0-3.31-2.69-6-6-6Zm-123.7,343.37l-60.34-25,33.35-12.96,38.94,23.79v18.81l-11.95-4.64ZM179.37,106.95l60.35,25-33.35,12.96-38.87-23.74v-18.83l11.87,4.61Zm177.79,225.62l-11.59-14.46,8.58-22.07,22.04,36.53h-19.03Zm22.65,6l54.27,89.95-72.11-89.95h17.84ZM142.84,167.43l11.59,14.46-8.58,22.07-22.04-36.53h19.03Zm-22.65-6l-54.27-89.95,72.11,89.95h-17.84Zm239.51,85.57h-29.43l19.1-31.26,10.33,31.26Zm1.98,6l.45,1.36-11.19,30.55-19.25-31.91h30Zm-13.55-41l-21.38,35h-34.2l47.62-59.08,7.96,24.08Zm-19.95,41l21.43,35.52-8.71,23.77-47.54-59.29h34.81Zm64.86-73.62l-25,60.34-12.96-33.35,23.79-38.95h18.81l-4.64,11.95Zm-10.5-17.95l48.02-78.61-30.54,78.61h-17.48Zm-3.52,0h-17.49l72.22-89.6-54.73,89.6Zm-3.67,6l-21.64,35.43-8.32-21.41,11.3-14.01h18.66Zm-31.21,10.79l-4.19-10.79h12.89l-8.7,10.79Zm-5.09,6.32l-50.35,62.47h-33.58l78.6-78.6,5.33,16.14Zm-190.61,29.53l19.87,32.94h-32.61l12.74-32.94Zm-12.74,38.94h34.03l-20.83,34.1-13.19-34.1Zm36.12-6l-22.01-36.47,8.98-23.2,47.84,59.68h-34.81Zm-21.56,43.63l22.99-37.63h34.2l-48.48,60.14-8.71-22.51Zm60.22-43.63l-50.44-62.91,6.12-15.81,78.72,78.72h-34.4Zm-54.79-68.35l-9-11.22h13.36l-4.36,11.22Zm-11.2,28.84l-13.3,34.23-28.86-74.29h17.99l24.17,40.06Zm-37.53,113.15l25-60.35,12.96,33.34-23.79,38.94h-18.81l4.64-11.94Zm10.51,17.94l-48.02,78.61,30.55-78.61h17.48Zm3.52,0h17.49l-72.22,89.6,54.73-89.6Zm3.67-6l21.64-35.43,8.32,21.41-11.3,14.01h-18.66Zm31.21-10.79l4.19,10.79h-12.89l8.7-10.79Zm4.36-5.41l51.08-63.37h33.58l-78.72,78.72-5.94-15.35Zm129.31-63.37l50.17,62.59-5.9,16.1-78.68-78.68h34.4Zm54.79,68.35l9,11.23h-13.36l4.36-11.23Zm11.2-28.84l13.3-34.23,28.87,74.29h-17.99l-24.17-40.06Zm16.52-42.51l26.73-68.81v137.61l-26.73-68.81Zm-14.36-88.57h-16.99l87.6-87.6-70.61,87.6Zm-26.2,4.97l-80.48,80.48v-34.8l64.44-51.66,16.03,5.99Zm-80.48,41.83v-35.21l37.55-22.66,23.62,8.82-61.17,49.04Zm0-38.71v-33.18l33.96,12.68-33.96,20.49Zm-6-1.02l-32.02-19.56,32.02-12.53v32.09Zm0,3.52v33.81l-57.97-46.73,22.44-8.78,35.53,21.7Zm0,37.66v33.19l-76.52-76.52,15.33-6,61.19,49.32Zm-103.13-48.26L71.41,73.53l87.9,87.9h-17.43Zm-25.19,0h-16.7l-30.21-77.76,46.92,77.76Zm11.27,88.57l-26.73,68.8V181.2l26.73,68.8Zm14.36,88.57h16.99l-87.6,87.6,70.61-87.6Zm25.96-4.73l76.72-76.72v34.01l-60.91,48.83-15.81-6.12Zm76.72-38.87v34.41l-34.47,20.8-23.2-8.98,57.68-46.24Zm0,37.92v30.63l-30.94-11.97,30.94-18.67Zm6,32.14v-35.78c.05-.04,.1-.07,.15-.11l35.95,21.96-35.17,13.6c-.34,0-.67,.12-.94,.33Zm1.05-38.86c-.33-.2-.7-.25-1.05-.19v-35.04l62.14,50.09-22.51,8.71-38.58-23.56Zm-.5-38.64c-.17-.14-.36-.23-.55-.28v-34.14l80.72,80.72-15.35,5.94-64.81-52.25Zm106.57,51.03l70.47,87.91-87.91-87.91h17.43Zm25.19,0h16.7l30.21,77.76-46.92-77.76Zm21.46-172.82l33.55-86.35V420.6l-33.55-86.35V165.75Zm-66.27-6.37v-17.45l87.98-70.53-87.98,87.98Zm-6,.64l-11.15-4.33,11.15-8.94v13.27Zm-165,0v-12.8l10.72,8.64-10.72,4.16Zm-6-.64L73.83,71.71l87.67,70.67v17Zm-66.27,6.38v168.49l-33.55,86.36V79.4l33.55,86.36Zm66.2,174.94v17.43l-87.91,70.47,87.91-87.91Zm6-.74l11.23,4.36-11.23,9v-13.36Zm165.14,0v12.89l-10.79-8.7,10.79-4.19Zm6,.74l87.6,87.6-87.6-70.61v-16.99Zm-.07-202.61v-17.85l90.02-54.31-90.02,72.17Zm-6,4.81l-14.38,11.53-22.07-8.58,36.46-22v19.04Zm-151.06,11.7l-13.94-11.24v-18.68l35.35,21.6-21.41,8.32Zm-19.94-16.07L71.83,66.24l89.67,54.78v17.51Zm-.07,223.45v17.84l-89.95,54.27,89.95-72.11Zm6-4.81l14.45-11.59,22.08,8.58-36.53,22.04v-19.03Zm151.13-11.76l14.01,11.3v18.66l-35.43-21.64,21.41-8.32Zm20.01,16.13l89.6,72.22-89.6-54.73v-17.49Zm-.07-244.8v-16.72l77.83-30.24-77.83,46.96Zm-6,3.62l-39.99,24.13-34.23-13.3,74.22-28.84v18.01Zm-171-2.85l-78.69-48.07,78.69,30.57v17.49Zm-.07,265.81v16.7l-77.76,30.21,77.76-46.92Zm6-3.62l40.06-24.17,34.23,13.3-74.29,28.87v-17.99Zm171.14,2.85l78.61,48.02-78.61-30.54v-17.48ZM250,127.96l-68.1-26.46h136.2l-68.1,26.46Zm0,244.08l68.81,26.73H181.19l68.81-26.73ZM333.54,95.5H166.46L79.4,61.67H420.6l-87.06,33.83ZM165.75,404.77h168.5l86.35,33.55H79.4l86.35-33.55Z"/></g></svg>