<svg xmlns="http://www.w3.org/2000/svg" data-name="Layer 1" viewBox="0 0 500 500" x="0px" y="0px"><path d="M400.04,92.52c0-.05,0-.11,0-.16-.02-.34-.06-.68-.14-1,0-.04-.02-.08-.03-.12-.08-.34-.19-.67-.33-.98-.02-.04-.04-.08-.06-.12-.15-.32-.32-.62-.52-.9-.03-.04-.06-.07-.08-.11-.21-.29-.45-.56-.71-.8-.02-.01-.03-.03-.04-.05l-39.27-36.25s-.04-.03-.06-.04c-.26-.24-.55-.45-.85-.64-.04-.03-.08-.05-.12-.08-.3-.17-.61-.32-.93-.44-.05-.02-.09-.03-.14-.05-.32-.11-.65-.19-.98-.25-.05,0-.1-.02-.15-.02-.27-.04-.55-.06-.83-.06H144.99c-.28,0-.56,.03-.83,.06-.05,0-.1,.01-.15,.02-.34,.06-.67,.14-.98,.25-.05,.02-.09,.03-.13,.05-.33,.12-.64,.27-.93,.44-.04,.02-.08,.05-.12,.07-.31,.19-.59,.41-.86,.65-.02,.02-.04,.03-.06,.04l-39.27,36.25s-.05,.05-.07,.08c-.09,.09-.17,.17-.26,.26-.06,.06-.12,.12-.17,.19-.07,.09-.14,.18-.21,.27-.05,.07-.11,.14-.16,.21-.06,.09-.12,.19-.18,.29-.05,.07-.09,.15-.14,.22-.06,.12-.12,.23-.17,.35-.03,.06-.06,.12-.09,.18-.23,.55-.39,1.13-.45,1.75-.01,.12-.01,.24-.02,.37,0,.08-.01,.16-.01,.24V407.31c0,.11,.01,.21,.02,.32,0,.1,0,.19,.01,.29,.06,.62,.22,1.2,.45,1.75,.03,.06,.06,.12,.09,.18,.06,.12,.11,.24,.17,.35,.04,.08,.09,.15,.14,.23,.06,.09,.11,.19,.17,.28,.05,.08,.11,.15,.17,.22,.07,.09,.13,.18,.21,.26,.06,.07,.12,.13,.18,.2,.08,.09,.16,.17,.25,.25,.03,.03,.05,.05,.08,.08l39.27,36.25s.04,.02,.05,.04c.27,.24,.56,.46,.86,.65,.04,.02,.08,.05,.12,.07,.3,.18,.61,.32,.94,.45,.04,.02,.09,.03,.13,.05,.32,.11,.65,.19,.99,.25,.05,0,.1,.02,.15,.02,.27,.04,.55,.06,.83,.06h209.79c.28,0,.56-.03,.83-.06,.05,0,.1-.01,.15-.02,.34-.06,.67-.14,.99-.25,.04-.02,.09-.03,.13-.05,.33-.12,.64-.27,.94-.45,.04-.02,.08-.05,.12-.07,.31-.19,.59-.41,.86-.65,.02-.02,.04-.03,.06-.04l39.27-36.25s.02-.03,.04-.04c.26-.25,.5-.52,.72-.81,.03-.04,.05-.07,.08-.1,.2-.29,.38-.59,.53-.91,.02-.04,.04-.07,.05-.11,.14-.32,.25-.65,.34-.99,0-.04,.02-.07,.03-.11,.07-.33,.12-.67,.14-1.01,0-.05,0-.1,0-.15,0-.06,0-.11,0-.17V92.69c0-.06,0-.11,0-.17Zm-35.12,287.35V120.13l23.13-18.72V398.59c-7.71-6.24-15.42-12.48-23.13-18.72Zm22.19-285.42l-25.06,20.29-34.82-32.14,24.9-20.16h.3l34.68,32.01Zm-137.22,24.62l-61.09-33.63h122.18l-61.09,33.63Zm68.35-30.77l-7.46,32.79-49.75-1.3,57.21-31.49Zm-79.5,31.49l-49.75,1.3-7.46-32.79,57.21,31.49Zm-49.5,7.3l60.65-1.59,60.65,1.59,16.89,122.92-16.89,122.92-60.65,1.58-60.65-1.58-16.89-122.92,16.89-122.92Zm127.31-.29l41.46-4.64-26.76,111.63-14.7-107Zm.47-6.09l7.4-32.53,30.63,28.28-38.04,4.25Zm4.57-41.25H178.18l-21.01-17.01h185.43l-21.01,17.01Zm-138.83,41.25l-38.04-4.25,30.63-28.28,7.4,32.53Zm.47,6.09l-14.7,107-26.76-111.63,41.46,4.64Zm-16.98,123.21l-25.39,105.92V144.08l25.39,105.92Zm2.28,16.21l14.7,107-41.46,4.63,26.76-111.63Zm14.23,113.09l-7.4,32.53-30.64-28.28,38.04-4.25Zm6.24-.39l49.75,1.3-57.21,31.49,7.46-32.79Zm60.89,2.01l61.09,33.63h-122.18l61.09-33.63Zm11.14-.71l49.75-1.3,7.46,32.79-57.21-31.49Zm55.99-.91l38.04,4.25-30.63,28.28-7.4-32.53Zm-.47-6.09l14.7-107,26.76,111.63-41.46-4.63Zm16.98-123.21l25.39-105.91v211.83l-25.39-105.91ZM147.34,62.44h.3l24.9,20.16-34.82,32.14c-8.35-6.76-16.71-13.53-25.06-20.29l34.68-32.01Zm-35.62,38.97c7.71,6.24,15.42,12.48,23.13,18.72V379.87c-7.71,6.24-15.42,12.48-23.13,18.72V101.41Zm.94,304.14c8.35-6.76,16.71-13.52,25.06-20.29l34.82,32.14-24.9,20.16h-.3l-34.68-32.01Zm44.51,32.01l21.01-17.01h143.4l21.01,17.01H157.17Zm195.26,0h-.3l-24.9-20.16,34.81-32.14c8.35,6.76,16.71,13.53,25.06,20.29l-34.68,32.01Z"/></svg>