<svg xmlns="http://www.w3.org/2000/svg" data-name="Layer 1" viewBox="0 0 500 500" x="0px" y="0px"><path d="M451.13,250.45h0c.08-27.38-4.82-51.9-15.41-77.17v-.02c-10.35-24.94-24.1-45.46-43.28-64.57h0c-19.22-19.29-39.99-33-65.36-43.14h0s-.07-.03-.1-.04h-.01c-25.42-10.75-49.78-15.67-76.62-15.53h-.02s-.02,0-.02,0c-28.4,.38-52.86,5.49-76.99,16.06h-.01s-.05,.03-.08,.04h-.01c-24.68,10.4-45.04,24.09-64.06,43.08h-.01c-19.29,19.4-33.14,40.25-43.57,65.61v.02h0c-9.93,24.45-14.95,49.15-15.35,75.5,0,.02,0,.04,0,.05,0,.02,0,.03,0,.05,.05,27.42,4.96,51.98,15.45,77.28h0v.03c10.81,25.73,25.19,46.71,45.24,66.01h0l.02,.02h0c18.86,18.34,39.52,31.86,65.02,42.55,.02,0,.03,.01,.05,.02,.01,0,.02,.01,.04,.02,24.23,9.71,48.64,14.43,74.63,14.43h.04c27.22,0,51.57-4.84,76.59-15.23h0l.03-.02h.01c25.06-10.23,45.58-23.79,64.55-42.67h.01v-.02h0c19.58-19.37,33.57-40.22,44.02-65.62v-.02c10.45-25.12,15.28-49.48,15.21-76.66h0v-.04Zm-140.09-3.71l-46.91-.03,95.35-39.68,.62,.62v7.66l-49.06,31.43Zm-19.47,48.7l12.9,58.18-5.94,5.94-40.9-97.31,33.94,33.2Zm-85.12,66.37l39.72-97.03,.21,46.44-31.99,50.58h-7.94Zm1.87-158l-11.43-50.85,6.35-6.35,37.21,89.98-32.13-32.78Zm82.64,.34l-33.31,32.91,38.85-92.97,6.44,6.43-11.98,53.63Zm-38.73,30.32l.36-46.13,28.36-44.5h9.15l-37.87,90.62Zm.39-57.33l.05-33.29h21.17l-21.22,33.29Zm-6,.09l-21.37-33.37h21.42l-.05,33.37Zm-.02,11.09l-.37,46.53-37.63-90.99h9.52l28.47,44.45Zm-.14,134.05l.21,39.43h-25.15l24.95-39.43Zm6,.01l25.38,39.41h-25.18l-.21-39.41Zm-.06-11.17l-.21-46.45,40.78,97.03h-8l-32.58-50.57Zm9.77-70.17l33.03-32.63c17.76-3.89,35.7-7.89,53.72-11.95l5.99,5.99-92.74,38.59Zm40.94-40.51l24.97-24.9,15.82,15.81c-13.66,3.08-27.27,6.11-40.79,9.09Zm-4.23-4.26l9.1-40.73,15.85,15.84-24.95,24.88Zm10.65-47.66l1.38-6.18,47-5.02-29.82,29.74-18.55-18.54Zm-5.03-5.02l-.43-.43,.54-.06-.11,.49Zm-5.29-5.94l14.22-34.03-7.44,33.31-6.78,.72Zm-4.49-4.81l-3.83-4.56,16.66-26.15-12.83,30.71Zm-3.63,5.01h-6.29l2.72-4.26,3.58,4.26Zm-13.41,0h-24.98l.07-45.69,30.7,36.6-5.79,9.09Zm-30.98,.01h-25.27l-4.67-7.28,30.01-37.83-.07,45.11Zm-32.4,.01h-3.33l1.84-2.32,1.49,2.32Zm-9.13-2.34l-13.9-33.62,18.12,28.3-4.22,5.32Zm-5.76,1.77l-6.16-.65-7.02-31.25,13.19,31.89Zm-1.22,5.91l-2.83,2.83-.72-3.21,3.56,.37Zm-7.86,7.86l-17.35,17.35-31.07-31.1,46.43,4.86,2,8.89Zm1.56,6.93l8.51,37.87-23.18-23.21,14.67-14.67Zm4.4,42.25l-38.39-8.27,15.07-15.07,23.32,23.34Zm7.8,7.82l32.63,33.29-90.77-37.42,6.91-6.91,51.24,11.04Zm-61.88,.82l91.69,37.8-45.81-.15-45.89-28.94v-8.71Zm34.62,37.64l-34.62-.03v-21.81l34.62,21.84Zm.21,6l-34.82,22.43v-22.46l34.82,.03Zm11.06,.01l46.18,.15-92.06,38.52v-9.12l45.88-29.56Zm-45.88,45.47v-.29l93.94-39.31-32.38,32.19-56.1,12.87-5.47-5.46Zm53.64,.56l-26.43,26.62-16.74-16.71,43.16-9.91Zm4.33,4.15l-9.46,43.73-17.05-17.03,26.51-26.7Zm7.85-7.89l32.7-32.51-38.96,95.17-5.99-5.98,12.26-56.67Zm-9.96,67.45l-4.69,.31,.89-4.11,3.81,3.8Zm-.75,6.06l-11,26.87,5.74-26.52,5.26-.34Zm6.52-.09l3.72,4.41-15.67,24.77,11.95-29.18Zm13.88-.42h28.98l.22,42.12-31.93-37.8,2.73-4.32Zm34.98-.02h29.01l3.91,6.06-32.69,37.26-.23-43.32Zm36.14-.02h2.11l-1.22,1.39-.89-1.39Zm7.77,2.65l11.38,27.08-14.88-23.1,3.5-3.98Zm5.51-2.38l5.65,.34,6.15,27.73-11.8-28.07Zm2.3-5.87l1.61-1.61,.38,1.74-2-.12Zm6.64-6.64l20.35-20.35,30.52,30.46-49.29-2.97-1.58-7.14Zm-1.54-6.94l-10.05-45.29,27.69,27.64-17.65,17.65Zm-5.8-49.53l45.35,9.98-17.66,17.66-27.69-27.64Zm-7.91-7.89l-33.57-32.84,97.5,40.05-5.63,5.63-58.3-12.83Zm-31.47-38.47l46.73,.03,49.06,30.96v8.36l-95.8-39.35Zm57.95,.01l37.84-.07v23.95l-37.84-23.88Zm-.07-6l37.91-24.29v24.22l-37.91,.07Zm43.91-28.13l3.89-2.49,36.32,30.47-40.2,.07v-28.05Zm.07-13.52l.05-.85,31.92-13.29-27.68,17.74-4.29-3.6Zm.41-7.5l.28-5.19c9.02-2.05,18.06-4.12,27.1-6.21l-27.39,11.4Zm-6.12,1.97l-4.65-4.65c1.66-.38,3.31-.75,4.97-1.13l-.32,5.78Zm-9.67-9.66l-18.5-18.49,31.42-31.34-2.6,47.49c-3.44,.78-6.89,1.56-10.32,2.34Zm-38.54-53.63l13.05-58.43c.17,.07,.33,.14,.5,.21l35.98,52.94-49.53,5.29Zm-25.45-12.79l-31.34-37.37,61.98-10.71-30.64,48.08Zm-73.52,1.78l-31.79-49.63,62.8,10.53-31.01,39.1Zm-26.39,10.75l-48.53-5.08,35.73-51.86,12.8,56.95Zm-18.21,36.66l-17.81,17.81-10.23-2.2-4-47.68,32.04,32.07Zm-22.86,22.86l-4.22,4.22-.44-5.22,4.66,1Zm-10.24,4.15l-32.31-13.32,31.76,6.84,.54,6.48Zm-.59,6.25l-4.99,4-27.72-17.48,32.7,13.48Zm1.16,6.76v1.12l-.78-.49,.78-.63Zm0,8.22v25.59l-42.1-.04,36.36-29.17,5.73,3.62Zm0,31.59v26.33l-8.94,5.76-36.05-32.13,44.99,.04Zm0,33.47v6.6l-4.3-3.83,4.3-2.77Zm-5.25,9.96l-29.14,12.19,24.86-16.01,4.28,3.82Zm4.97,4.43l.18,.16-.43,5.72-30.58,7.02,30.82-12.9Zm9.86,9.72l19.41,19.39-27.31,27.51,3.44-45.87,4.45-1.02Zm23.66,23.63l19.77,19.75-2.07,9.56-49.95,3.27v-.1l32.25-32.48Zm16.38,35.4l-11.15,51.57-35.12-48.54,46.27-3.03Zm-4.57,56.38l30.36-48.01,33.02,39.09-60.27,10.13c-1.04-.39-2.07-.8-3.11-1.21Zm107.74-46.35l30.12,46.76c-.09,.04-.18,.07-.27,.11l-62.64-9.49,32.79-37.37Zm37.03,43.91l-12.03-54.25,49.54,2.98-37.04,51.07c-.16,.07-.32,.13-.47,.2Zm9.63-92.08l20.37-20.36,5.18,1.14,4.24,48.95-29.78-29.72Zm30.65-29.86l29.46,12.1-28.97-6.38-.5-5.72Zm4.31-4.72l3.88-3.6,23.58,14.88-27.45-11.27Zm-4.49-4.02v-4.85l3.11,1.96-3.11,2.89Zm0-11.95v-27.75l42.8-.08-35.14,32.66-7.66-4.83Zm9.17-67.68l50.39-32.28c.11,.28,.23,.55,.34,.83l-12.38,63.62-38.35-32.17Zm-8.07-26.56l2.59-47.33,51.96,34.73c-18.19,4.26-36.4,8.47-54.55,12.6Zm-.06-58l-30.84-45.37c16.6,8.17,31.12,18.42,44.72,31.53l-13.88,13.84Zm-114.26-47.72l.35-18.45c18.88,.15,36.5,3.07,54.31,9l-54.67,9.45Zm-6.14,.02l-54.08-9.07c16.97-5.74,34.55-8.76,54.1-9.33l-.03,18.4Zm-113.86,47.84l-12.93-12.94c13.37-12.95,27.51-23.19,43.54-31.49l-30.61,44.44Zm1.64,58.63l-55.35-11.92,51.31-36.18,4.03,48.1Zm-59.15-4.4l49.69,31.34-38.65,31-11.21-61.92c.05-.14,.11-.28,.17-.42Zm46.62,105.4l-46.46,29.93,10.85-61.67,35.61,31.74Zm-44.17,37.69l57.35-13.16-3.82,51.02-.29,.3-52.77-37.09c-.16-.35-.31-.71-.46-1.07Zm55.78,48.52l31.86,44.05c-16.51-8.42-30.82-18.53-44.12-31.1l12.25-12.95Zm113.34,48.07l.09,16.47c-17.71-.31-34.23-2.88-50.76-7.95l50.68-8.52Zm6.39-.11l53.47,8.11c-17.24,5.49-34.55,8.22-53.26,8.48l-.21-16.58Zm116.11-48.35l11.91,12.52c-13.31,12.88-27.48,23.05-43.67,31.27l31.76-43.79Zm-2.15-60.7l56.29,12.39c-.13,.3-.25,.59-.38,.89l-51.54,37.21-4.37-50.49Zm11.7-24.53l34.68-32.23,12.28,61.86-46.96-29.63Zm60.07-42.03l-19.68,.04,10.58-54.38c5.86,17.65,8.8,35.3,9.1,54.34Zm-20.86-82.53l-46.39-31,14.15-13.72c13.35,13.68,23.83,28.18,32.24,44.72ZM115.5,119.82l12.94,13.12-45.1,31.8c8.43-16.61,18.88-31.18,32.16-44.92Zm-44.3,74.57l9.42,52.02-18.31-.02c.61-18.18,3.49-35.09,8.89-52.01Zm-8.96,58.97h18.57l-9.62,54.67c-5.76-17.74-8.65-35.49-8.95-54.67Zm21.39,84.4l43.16,30.34-12.22,12.31c-12.64-12.97-22.73-26.86-30.94-42.65Zm302.61,43.68l-12.21-12.18,43.88-31.68c-8.31,16.19-18.61,30.44-31.68,43.86Zm43.9-73.13l-10.89-54.87h19.85c-.22,19.26-3.1,37.06-8.96,54.87Z"/></svg>