<svg width="31" height="30" viewBox="0 0 31 40" fill="none" xmlns="http://www.w3.org/2000/svg">
<path d="M30.746 4.21638C30.746 4.21137 30.746 4.20536 30.746 4.20035C30.744 4.16627 30.74 4.13219 30.732 4.10012C30.732 4.09611 30.73 4.0921 30.729 4.0881C30.721 4.05402 30.71 4.02095 30.6961 3.98988C30.6941 3.98587 30.6921 3.98186 30.6901 3.97785C30.6751 3.94578 30.6581 3.91571 30.6381 3.88765C30.6351 3.88364 30.6321 3.88063 30.6301 3.87663C30.6092 3.84756 30.5852 3.8205 30.5592 3.79645C30.5572 3.79544 30.5562 3.79344 30.5552 3.79144L26.6328 0.158352C26.6328 0.158352 26.6288 0.155346 26.6268 0.154344C26.6008 0.13029 26.5719 0.109243 26.5419 0.0902005C26.5379 0.0871938 26.5339 0.0851895 26.5299 0.0821828C26.5 0.0651449 26.469 0.0501116 26.437 0.0380848C26.432 0.0360804 26.428 0.0350779 26.423 0.0330734C26.3911 0.0220489 26.3581 0.014031 26.3252 0.00801764C26.3202 0.00801764 26.3152 0.00601313 26.3102 0.00601313C26.2832 0.00200422 26.2552 0 26.2273 0H5.27073C5.24276 0 5.21479 0.00300645 5.18782 0.00601313C5.18283 0.00601313 5.17783 0.00701541 5.17284 0.00801764C5.13888 0.014031 5.10592 0.0220489 5.07495 0.0330734C5.06996 0.0350779 5.06596 0.0360804 5.06197 0.0380848C5.02901 0.0501116 4.99804 0.0651449 4.96908 0.0821828C4.96508 0.0841873 4.96109 0.0871939 4.95709 0.0891984C4.92613 0.108241 4.89816 0.13029 4.87119 0.154344C4.86919 0.156348 4.8672 0.15735 4.8652 0.158352L0.942775 3.79144C0.942775 3.79144 0.93778 3.79645 0.935783 3.79945C0.926793 3.80847 0.918803 3.81649 0.909813 3.82551C0.90382 3.83153 0.897828 3.83754 0.892833 3.84455C0.885842 3.85357 0.878849 3.86259 0.871857 3.87161C0.866863 3.87863 0.86087 3.88565 0.855876 3.89266C0.849883 3.90168 0.84389 3.9117 0.837897 3.92173C0.832903 3.92874 0.828908 3.93676 0.823914 3.94378C0.817921 3.9558 0.811928 3.96683 0.806934 3.97885C0.803937 3.98487 0.80094 3.99088 0.797944 3.99689C0.77497 4.05202 0.758989 4.11015 0.752996 4.17228C0.751998 4.18431 0.751997 4.19634 0.750998 4.20937C0.750998 4.21738 0.75 4.2254 0.75 4.23342V35.7656C0.75 35.7766 0.750998 35.7866 0.751997 35.7976C0.751997 35.8077 0.751998 35.8167 0.752996 35.8267C0.758989 35.8889 0.77497 35.947 0.797944 36.0021C0.80094 36.0081 0.803937 36.0141 0.806934 36.0201C0.812927 36.0322 0.817921 36.0442 0.823914 36.0552C0.827909 36.0632 0.832903 36.0703 0.837897 36.0783C0.84389 36.0873 0.848884 36.0973 0.854877 36.1063C0.859871 36.1144 0.865864 36.1214 0.871857 36.1284C0.878849 36.1374 0.884843 36.1464 0.892833 36.1544C0.898826 36.1615 0.904819 36.1675 0.910812 36.1745C0.918802 36.1835 0.926793 36.1915 0.935783 36.1995C0.938779 36.2026 0.940777 36.2046 0.943773 36.2076L4.8662 39.8406C4.8662 39.8406 4.87019 39.8427 4.87119 39.8447C4.89816 39.8687 4.92713 39.8908 4.95709 39.9098C4.96109 39.9118 4.96508 39.9148 4.96908 39.9168C4.99904 39.9349 5.03001 39.9489 5.06297 39.9619C5.06696 39.9639 5.07196 39.9649 5.07595 39.9669C5.10791 39.978 5.14088 39.986 5.17484 39.992C5.17983 39.992 5.18483 39.994 5.18982 39.994C5.21679 39.998 5.24476 40 5.27272 40H26.2273C26.2552 40 26.2832 39.997 26.3102 39.994C26.3152 39.994 26.3202 39.993 26.3252 39.992C26.3591 39.986 26.3921 39.978 26.424 39.9669C26.428 39.9649 26.433 39.9639 26.437 39.9619C26.47 39.9499 26.501 39.9349 26.5309 39.9168C26.5349 39.9148 26.5389 39.9118 26.5429 39.9098C26.5739 39.8908 26.6018 39.8687 26.6288 39.8447C26.6308 39.8427 26.6328 39.8416 26.6348 39.8406L30.5572 36.2076C30.5572 36.2076 30.5592 36.2046 30.5612 36.2036C30.5872 36.1785 30.6112 36.1514 30.6331 36.1224C30.6361 36.1184 30.6381 36.1154 30.6411 36.1123C30.6611 36.0833 30.6791 36.0532 30.6941 36.0211C30.6961 36.0171 30.6981 36.0141 30.6991 36.0101C30.713 35.9781 30.724 35.945 30.733 35.9109C30.733 35.9069 30.735 35.9039 30.736 35.8999C30.743 35.8668 30.748 35.8327 30.75 35.7987C30.75 35.7936 30.75 35.7886 30.75 35.7836C30.75 35.7776 30.75 35.7726 30.75 35.7666V4.23342C30.75 4.22741 30.75 4.22239 30.75 4.21638H30.746ZM27.2381 33.0155V6.98354L29.5484 5.10736V34.8916C28.7783 34.2662 28.0082 33.6409 27.2381 33.0155ZM29.4545 4.40981L26.9514 6.44334L23.4735 3.22217L25.9606 1.20167H25.9906L29.4545 4.40981ZM15.7485 6.8773L9.64662 3.5068H21.8504L15.7485 6.8773ZM22.5755 3.79344L21.8304 7.07975L16.8612 6.94946L22.5755 3.79344ZM14.6348 6.94946L9.6656 7.07975L8.92047 3.79344L14.6348 6.94946ZM9.69057 7.68109L15.7485 7.52174L21.8064 7.68109L23.4935 20.0005L21.8064 32.3199L15.7485 32.4783L9.69057 32.3199L8.00354 20.0005L9.69057 7.68109ZM22.4067 7.65203L26.5479 7.18699L23.875 18.3749L22.4067 7.65102V7.65203ZM22.4537 7.04167L23.1928 3.78141L26.2522 6.61572L22.4527 7.04167H22.4537ZM22.9101 2.90747H8.58586L6.48731 1.20268H25.0087L22.9101 2.90747ZM9.04332 7.04167L5.24376 6.61572L8.30319 3.78141L9.04233 7.04167H9.04332ZM9.09027 7.65203L7.62198 18.3759L4.9491 7.18799L9.09027 7.65303V7.65203ZM7.39425 20.0005L4.85821 30.6161V9.38388L7.39425 19.9995V20.0005ZM7.62198 21.6251L9.09027 32.349L4.9491 32.813L7.62198 21.6251ZM9.04332 32.9593L8.30419 36.2196L5.24376 33.3853L9.04332 32.9593ZM9.6666 32.9202L14.6358 33.0505L8.92147 36.2066L9.6666 32.9202ZM15.7485 33.1217L21.8504 36.4922H9.64662L15.7485 33.1217ZM16.8612 33.0505L21.8304 32.9202L22.5755 36.2066L16.8612 33.0505ZM22.4537 32.9593L26.2532 33.3853L23.1938 36.2196L22.4547 32.9593H22.4537ZM22.4067 32.349L23.875 21.6251L26.5479 32.813L22.4067 32.349ZM24.1028 20.0005L26.6388 9.38588V30.6161L24.1028 20.0015V20.0005ZM5.50545 1.20167H5.53542L8.02251 3.22217L4.54457 6.44334C3.71055 5.76583 2.87552 5.08732 2.04149 4.40981L5.50545 1.20167ZM1.9476 5.10736C2.7177 5.73276 3.48781 6.35815 4.25791 6.98354V33.0155C3.48781 33.6409 2.7177 34.2662 1.9476 34.8916V5.10736ZM2.04149 35.5892C2.87552 34.9117 3.71055 34.2342 4.54457 33.5557L8.02251 36.7768L5.53542 38.7973H5.50545L2.04149 35.5892ZM6.48731 38.7973L8.58586 37.0925H22.9091L25.0077 38.7973H6.48731ZM25.9906 38.7973H25.9606L23.4735 36.7768L26.9504 33.5557C27.7845 34.2332 28.6195 34.9117 29.4535 35.5892L25.9896 38.7973H25.9906Z" fill="#2B2B2B"/>
</svg>
