<svg xmlns="http://www.w3.org/2000/svg" data-name="Layer 1" viewBox="0 0 500 500" x="0px" y="0px"><path d="M444.5,50.5H57.06c-3.31,0-6,2.69-6,6V443.97c0,3.31,2.69,6,6,6H444.5c3.31,0,6-2.69,6-6V56.5c0-3.31-2.69-6-6-6Zm-31.89,39.34l-22.15,29.49-3.67-3.68,25.82-25.8Zm-30.06,21.55l-3.67-3.69,29.51-22.13-25.84,25.82Zm-7.95-7.98l-4.78-4.79,36.24-18.8-31.46,23.59Zm-4.85,3.63l-.57,.43-.16-1.17,.73,.74Zm4.28,4.29l4.28,4.29-7.02,7.01-1.16-8.38,3.9-2.93Zm-8.1,16.3l-11.49-1.61,10.2-7.65,1.29,9.26Zm-5,5.36l-110.46,110.37v-39.37l97.16-72.86,13.3,1.86Zm-116.46,110.36l-109.47-109.57,13.49-1.89,95.97,72.1v39.36Zm-108.84-115.72l.67-4.9,5.4,4.05-6.07,.85Zm-6.14,.62l-9.43-9.44,4.72-4.74,6.04,4.54-1.33,9.65Zm-42.62-42.66l33.07,24.84-4.12,4.14-28.95-28.98Zm24.72,33.23l-4.13,4.15-24.86-33.17,28.99,29.02Zm17.47-9.05l3.46-3.48-.76,5.51-2.7-2.03Zm-4.84-3.64l-40.95-30.76,47.75,23.93-6.8,6.83Zm-21.03,21.13l-3.61,3.63-14.86-28.26,18.47,24.64Zm7.91,.55l4.73-4.76,6.46,6.46-8.95,1.28-2.23-2.98Zm16.49,7.01l.86,.86-1.83,12.83-9.18-12.25,10.15-1.45Zm6.16,6.17l106.49,106.59h-39.37l-69.17-92.28,2.04-14.32Zm67.12,112.59h39.37l-106.4,106.49-2.05-14.34,69.08-92.15Zm-72.33,111.79l-.3,.3-10.3-1.47,8.76-11.69,1.83,12.86Zm-5.6,5.61l-6.74,6.74-4.79-4.81,2.42-3.23,9.1,1.3Zm-40.33,40.37l25.18-33.58,4.18,4.2-29.36,29.38Zm33.59-25.13l4.17,4.19-33.5,25.16,29.33-29.35Zm-16.62-16.7l3.93,3.94-20.07,26.77,16.14-30.72Zm25.06,25.18l6.87,6.91-48.25,24.17,41.37-31.07Zm4.84-3.64l2.37-1.78,.67,4.83-3.04-3.05Zm-4.27-4.29l-4.77-4.8,9.15-9.16,1.33,9.67-5.71,4.29Zm10.43-13.99l6.91,.97-6.14,4.61-.77-5.58Zm.03-6.05l108.81-108.9v39.36l-95.13,71.45-13.68-1.91Zm114.81-108.91l109.8,109.7-13.48,1.89-96.32-72.21v-39.37Zm115.12,115.01l.29,.29-1.33,9.6-10.95-8.21,11.99-1.68Zm5.61,5.6l6.74,6.73-4.33,4.35-3.57-2.68,1.17-8.4Zm37.19,37.16l-29.94-22.44,3.73-3.74,26.21,26.19Zm-21.98-30.44l3.72-3.74,22.47,29.91-26.19-26.17Zm-17.08,8.65l-.31,.31,.07-.49,.24,.18Zm4.85,3.63l28.73,21.54-33.08-17.17,4.35-4.37Zm20.24-20.31l6.28-6.31,22.12,44.11-28.41-37.8Zm-3.64-4.85l-2.05-2.73,5.57-.79-3.52,3.53Zm-4.28,4.29l-4.33,4.34-9.14-9.13,8.91-1.27,4.56,6.06Zm-13.52-10.84l.86-6,3.99,5.31-4.85,.69Zm-6.05-.04l-112.21-112.1h39.36l74.66,99.36-1.82,12.74Zm-72.85-118.1h-39.36l112.3-112.21,1.81,12.71-74.75,99.5Zm78.9-112.91l5.35,.76-4.41,5.87-.95-6.63Zm.7-5.96l8.86-8.85,4.27,4.29-4.37,5.81-8.77-1.25Zm17.41-.27l3.2,3.21-5.07-.72,1.87-2.49Zm3.64-4.85l28.09-37.39-21.87,43.62-6.21-6.24Zm-32.47-22.38l1.44,10.35-17.69,13.26-25.74-3.6,39.18-19.6,2.81-.41Zm-23.06,28.72l-88.73,66.54v-40.33l60.33-30.18,28.4,3.97Zm-88.73,19.5v-31.82l.29-.04,49.56,6.93-49.85,24.93Zm-6,0l-48.33-24.22,48.33-6.76v30.98Zm0,6.71v40.33l-87.55-65.77,28.75-4.02,58.8,29.47Zm-94.35-30.55l-12.88-9.68,1.74-12.63,37.24,18.66-26.09,3.65Zm-47.91,12.84l8.45-1.21,14.75,19.68-3.93,27.51-17.79-35.61-1.48-10.38Zm28.29,25.27l62.87,83.87h-40.33l-26.84-53.72,4.3-30.15Zm15.83,83.87h-27.8l6.18-43.28,21.62,43.28Zm0,6l-21.54,43.1-6.15-43.1h27.69Zm6.71,0h40.33l-62.78,83.74-4.31-30.2,26.76-53.54Zm-27.54,90.53l-14.34,19.13-8.95-1.28,1.33-9.33,18.03-36.07,3.93,27.56Zm11.84,41.05l13.63-10.24,26.43,3.7-38.32,19.19-1.74-12.65Zm20.43-15.34l86.71-65.13v40.33l-57.63,28.87-29.08-4.07Zm86.71-18.09v30.21l-47.15-6.59,47.15-23.62Zm6.31,31.1l-.31-.04v-31.06l48.67,24.34-48.36,6.76Zm-.31-37.81v-40.33l87.89,65.89-28.73,4.02-59.15-29.58Zm94.7,30.67l18.44,13.82-1.34,9.67-4.92-.72-38.24-19.12,26.07-3.65Zm39.44-11.62l-9.57-12.74,3.52-24.67,17.91,35.72-11.86,1.69Zm-14.67-19.52l-68.36-90.97h40.32l31.93,63.67-3.9,27.3Zm-21.32-90.97h34.3l-7.6,53.25-26.7-53.25Zm0-6l26.79-53.42,7.62,53.42h-34.41Zm-6.71,0h-40.32l68.45-91.1,3.89,27.26-32.01,63.84Zm33.22-97.88l9.99-13.29,11.7,1.67-18.18,36.25-3.51-24.63Zm-65.34-29.93l-37.87-5.29,68.56-10.06-30.69,15.35Zm-123.1,.71l-34.7-17.39,77.62,11.39-42.92,6Zm-66.69,74.39l-4.87,34.1-8.76-61.36,13.62,27.26Zm.08,111.25l-13.86,27.73,8.91-62.41,4.95,34.68Zm67.79,73.97l41.76,5.84-75.53,11.08,33.77-16.92Zm120.74,.71l29.74,14.87-66.42-9.74,36.68-5.13Zm71.44-64.56l6.39-44.8,11.48,80.43-17.87-35.63Zm.08-131.49l17.64-35.17-11.33,79.39-6.31-44.21Zm-20.46-89.93h-54.46l109.35-27.46-54.89,27.46Zm-35.98,6l-72.93,10.7-.29-.04v-2.91l30.84-7.74h42.38Zm-76.22,2.31l-9.19-2.31h18.39l-9.2,2.31Zm-3,5.43v2.03l-66.64-9.78h35.86l30.78,7.74Zm-107.04-13.74l-49.27-25.57,101.67,25.57h-52.4Zm-41.62,51.66v62.6l-31.41-125.46,31.41,62.86Zm6,31.67l9.91,69.44h-6.27l-3.64-14.53v-54.91Zm3.64,75.44h6.16l-9.8,68.68v-54.15l3.64-14.53Zm-9.64,101.09l-31.41,62.85,31.41-125.44v62.6Zm41.62,50.92h55.4l-107.37,26.99,51.97-26.99Zm40.4-6l66.64-9.77v2.79l-27.77,6.98h-38.87Zm69.64-1.55l6.17,1.55h-12.33l6.16-1.55Zm3-5.43v-3.67l.31-.05,72.92,10.7h-45.41l-27.82-6.98Zm107.7,12.98l56.38,28.19-112.35-28.19h55.97Zm47.57-41.81v-45.74l22.16,87.9-22.16-42.16Zm-6-41.52l-9.21-64.52,9.21,36.51v28.01Zm-4.82-71.67l4.82-19.12v38.24l-4.82-19.12Zm-4.64-6.15l9.46-66.27v28.76l-9.46,37.51Zm15.46-107.8l22.51-42.82-22.51,89.31v-46.49Zm-125.18-41.82h-66.14L85.86,62.5H409.37l-128.8,32.34ZM95.81,233.81v33.58l-32.75,130.82V102.97l32.75,130.84Zm121.63,171.8h60.11l128.97,32.36H88.7l128.74-32.36Zm188.3-112.09v-85.83l32.76-129.93V423.42l-32.76-129.91Z"/></svg>