<svg xmlns="http://www.w3.org/2000/svg" data-name="Layer 1" viewBox="0 0 500 500" x="0px" y="0px"><path d="M384.54,56.01s0-.08,0-.13c0-.68-.12-1.33-.34-1.94h0c-.19-.55-.46-1.05-.79-1.51h0l-.04-.05h0c-.21-.27-.43-.53-.68-.76h0l-.03-.02c-.12-.12-.25-.23-.39-.33h0c-.05-.04-.1-.08-.15-.12h0c-.11-.08-.22-.16-.34-.23-.05-.03-.09-.06-.14-.09h0c-.3-.17-.62-.32-.95-.44-.03-.01-.06-.02-.1-.04h0c-.29-.1-.58-.17-.89-.23h0s-.1-.02-.15-.03c-.04,0-.08,0-.12-.01h0c-.15-.02-.3-.03-.45-.04h0c-.05,0-.11,0-.16,0-.04,0-.07,0-.11,0H121.29s-.07,0-.11,0c-.05,0-.11,0-.16,0h0c-.05,0-.1,0-.16,0-.1,0-.2,.02-.3,.03-.04,0-.08,0-.12,.01-.05,0-.1,.02-.15,.03-.11,.02-.22,.04-.33,.07-.08,.02-.16,.04-.24,.06-.11,.03-.21,.06-.32,.1h0c-.08,.03-.15,.05-.23,.08-.1,.04-.2,.08-.31,.13-.07,.03-.14,.07-.21,.1-.1,.05-.2,.1-.3,.16-.06,.04-.13,.08-.19,.12-.1,.06-.2,.13-.29,.2-.05,.04-.1,.08-.15,.12-.1,.08-.2,.16-.3,.25-.04,.03-.08,.07-.11,.1-.1,.1-.2,.2-.3,.3-.03,.03-.05,.06-.08,.09-.1,.12-.2,.23-.29,.36h-.01l-.04,.07c-.09,.13-.18,.26-.27,.4l-.04,.06c-.08,.14-.16,.28-.23,.42-.01,.03-.03,.05-.04,.08-.06,.14-.12,.28-.18,.42-.02,.04-.03,.08-.04,.12h0c-.02,.07-.04,.13-.06,.2-.02,.07-.04,.13-.06,.2-.02,.06-.03,.12-.05,.18-.03,.12-.05,.23-.07,.35-.01,.08-.03,.17-.04,.25h0c-.01,.1-.02,.2-.03,.3,0,.1-.01,.2-.02,.3,0,.05,0,.11,0,.16,0,.04,0,.08,0,.13,0,.1,0,.19,.01,.29,0,.11,.02,.21,.03,.32,0,.04,0,.07,.01,.11l57.06,388.24c0,.05,.02,.1,.03,.15,.02,.11,.04,.23,.07,.34,.02,.08,.04,.16,.06,.24,.03,.11,.06,.21,.1,.32,.03,.08,.06,.16,.09,.25,.04,.09,.07,.19,.12,.28,.04,.09,.08,.17,.13,.26,.04,.08,.08,.16,.13,.24,.05,.09,.11,.18,.16,.26,.05,.07,.09,.14,.14,.21,.06,.08,.12,.17,.19,.25,.05,.07,.11,.13,.16,.19,.07,.08,.13,.15,.2,.22,.06,.06,.12,.13,.19,.19,.07,.07,.14,.13,.21,.19,.07,.06,.14,.12,.22,.18,.07,.06,.14,.11,.22,.16,.08,.06,.16,.11,.25,.17,.07,.05,.15,.09,.22,.13,.09,.05,.18,.1,.27,.15,.08,.04,.15,.07,.23,.11,.09,.04,.19,.08,.28,.12,.08,.03,.17,.06,.25,.09,.09,.03,.19,.06,.28,.09,.09,.03,.19,.05,.28,.07,.09,.02,.18,.04,.27,.06,.1,.02,.21,.03,.32,.05,.08,.01,.17,.02,.26,.03,.11,0,.22,.01,.33,.02,.05,0,.11,0,.16,0l71.62-.33,71.62,.33c.05,0,.11,0,.16,0,.11,0,.22,0,.33-.02,.09,0,.17-.02,.26-.03,.11-.01,.21-.03,.32-.05,.09-.02,.18-.04,.27-.06,.1-.02,.19-.04,.28-.07,.09-.03,.19-.06,.28-.09,.08-.03,.17-.06,.25-.09,.1-.04,.19-.08,.28-.12,.08-.03,.15-.07,.23-.11,.09-.05,.18-.1,.27-.15,.07-.04,.15-.09,.22-.13,.08-.05,.17-.11,.25-.17,.07-.05,.15-.11,.22-.16,.07-.06,.15-.12,.22-.18,.07-.06,.14-.13,.21-.19,.06-.06,.13-.12,.19-.19,.07-.07,.14-.15,.2-.22,.06-.06,.11-.13,.16-.19,.06-.08,.13-.16,.19-.25,.05-.07,.1-.14,.14-.21,.06-.09,.11-.17,.16-.26,.04-.08,.09-.16,.13-.24,.04-.09,.09-.17,.13-.26,.04-.09,.08-.18,.12-.28,.03-.08,.06-.16,.09-.25,.04-.1,.07-.21,.1-.32,.02-.08,.04-.16,.06-.24,.03-.11,.05-.23,.07-.34,0-.05,.02-.1,.03-.15L384.48,56.73s0-.07,.01-.11h0c.02-.19,.04-.39,.04-.58v-.03Zm-67.07,376.46l-10.74-15,48.37-334.38,16.02-15.69-53.66,365.07ZM149.46,207.4l-20.58-140.01,16.02,15.69,48.44,334.83-10.71,15.13-33.16-225.64Zm86.86,156.97l11.62-59.79h.94l14.96,59.79h-27.53Zm17.76-63.07v-104.03l39.93-52.2-27.52,205.82-12.41-49.59Zm-4.36-107.94h-2.67l-39.73-55.86h85.13l-42.73,55.86Zm-7.1,3.85v104.17l-9.32,47.93-27.2-203.43,36.51,51.33Zm-8.49,173.19h31.76l14.51,20.29h-60.64l14.37-20.29Zm36.34-3.62h0l-.14-.56,30.78-230.25,20.95-20.52-37.81,270.59-13.78-19.26Zm26.69-235.11h-94.31l-22.53-22.07h139.38l-22.53,22.07Zm-98.26,4.3l30.82,230.57-13.94,19.68L177.94,115.45l20.95,20.52Zm85.68,260.56l13.3,18.59h-95.4l13.16-18.59h68.94Zm4.6-3.6l39.71-284.17,19.35-18.96-46.41,320.8-12.65-17.68Zm36.47-289.17H174.35l-19.04-18.65h189.37l-19.04,18.65Zm-154.53,5l39.74,284.4-12.63,17.83L151.77,89.81l19.35,18.95Zm15.38,328.9l11.84-16.72h103.71l11.96,16.72-64.01,.29-63.5-.29ZM368.58,61.71l-17.94,17.57H149.36l-17.94-17.57h237.16Z"/></svg>