<svg xmlns="http://www.w3.org/2000/svg" data-name="Layer 1" viewBox="0 0 500 500" x="0px" y="0px"><path d="M453.02,86.94c0-.11-.02-.21-.03-.31,0-.09-.02-.17-.03-.26-.02-.11-.04-.22-.06-.34-.02-.08-.03-.15-.05-.23-.03-.11-.06-.22-.1-.33-.02-.07-.04-.15-.07-.22-.04-.11-.08-.21-.12-.31-.03-.08-.06-.15-.09-.23-.04-.09-.09-.19-.14-.28-.04-.08-.08-.16-.13-.24-.05-.08-.1-.16-.16-.24-.05-.08-.11-.16-.16-.24-.05-.07-.11-.14-.17-.21-.06-.08-.13-.16-.19-.24-.06-.07-.12-.13-.19-.2-.07-.07-.14-.15-.22-.22-.07-.07-.15-.13-.22-.19-.07-.06-.15-.13-.22-.19-.09-.07-.18-.13-.27-.19-.07-.05-.14-.1-.21-.14-.1-.06-.21-.12-.32-.18-.07-.04-.13-.07-.2-.11-.11-.05-.23-.1-.35-.15-.06-.03-.12-.06-.19-.08h-.03c-.09-.04-.19-.07-.28-.1-.11-.03-.21-.07-.32-.1h-.03l-66.18-16.48c-.47-.12-.96-.18-1.45-.18H119.15c-.49,0-.98,.06-1.45,.18l-66.18,16.47h-.02c-.11,.04-.22,.07-.33,.11-.09,.03-.18,.05-.27,.08-.01,0-.02,0-.03,.01-.07,.03-.13,.06-.2,.09-.11,.05-.22,.09-.33,.14-.07,.04-.14,.08-.22,.12-.1,.06-.21,.11-.3,.17-.08,.05-.15,.1-.23,.16-.08,.06-.17,.11-.25,.18-.08,.06-.16,.13-.24,.2-.07,.06-.14,.11-.2,.17-.08,.08-.16,.16-.24,.24-.06,.06-.11,.11-.17,.17-.07,.08-.14,.17-.21,.26-.05,.06-.1,.12-.15,.19-.06,.09-.12,.18-.18,.27-.05,.07-.09,.14-.14,.21-.05,.09-.1,.18-.14,.27-.04,.08-.09,.16-.13,.24-.04,.09-.07,.17-.11,.26-.04,.09-.08,.18-.11,.28-.03,.08-.05,.17-.08,.26-.03,.1-.06,.2-.09,.3-.02,.09-.04,.18-.06,.27-.02,.1-.04,.2-.06,.3-.01,.1-.02,.2-.03,.29,0,.09-.02,.19-.03,.28,0,.11,0,.23,0,.34,0,.08,0,.16,0,.24,0,.13,.02,.26,.04,.39,0,.07,.01,.14,.02,.21,.02,.13,.05,.27,.08,.4,.01,.06,.02,.12,.03,.17v.02c.06,.21,.12,.43,.2,.64l27.07,72.19c.07,.19,.15,.38,.24,.56l51.14,103.03c.05,.11,.11,.22,.17,.32l63.17,109.8c.25,.43,.55,.83,.9,1.19l55.65,57.15s.06,.05,.08,.08c.01,.01,.02,.03,.03,.04,.02,.02,.04,.03,.06,.05,.26,.25,.54,.48,.84,.67,.03,.02,.06,.04,.09,.06,.3,.19,.62,.36,.94,.49,.03,.01,.05,.02,.08,.03,.33,.13,.68,.23,1.02,.3,.02,0,.03,0,.05,0,.36,.07,.72,.1,1.09,.1h0c.36,0,.73-.04,1.09-.1,.02,0,.03,0,.05,0,.35-.07,.69-.17,1.02-.3,.03-.01,.05-.02,.08-.03,.33-.13,.64-.3,.95-.49,.03-.02,.06-.03,.09-.05,.3-.19,.58-.42,.84-.67,.02-.02,.04-.03,.06-.05,.01-.01,.02-.03,.03-.04,.03-.03,.06-.05,.08-.08l55.65-57.15c.35-.36,.65-.76,.9-1.19l63.17-109.8c.06-.11,.12-.21,.17-.32l51.14-103.03c.09-.18,.17-.37,.24-.56l27.07-72.19c.08-.21,.14-.42,.2-.64v-.02c.02-.06,.03-.12,.04-.18,.03-.13,.06-.26,.08-.39,.01-.08,.02-.15,.02-.23,.01-.12,.03-.24,.03-.36,0-.09,0-.18,0-.27,0-.1,0-.21,0-.31Zm-88.13,169.93l-28.87-15.88,44.01-69.64,6.28-1.39-17.62,79.27-3.79,7.64Zm-229.79,0l-3.79-7.64-17.62-79.27,6.28,1.39,44.01,69.64-28.87,15.88ZM372.48,99.32l-13.32-3.44,17.02-16.44-3.71,19.88Zm-12.85,2.88l-8.25,1.19,2.72-2.62,5.53,1.43Zm-18.41,2.66l-88.22,12.75v-40.85h8.22l86.06,22.24-6.06,5.85Zm-12.94,131.88l-69.86-38.43,88.84-19.69-18.98,58.12Zm25.78-59.63l17.71-3.93-33.99,53.78,16.28-49.86Zm-29.26,70.28l-41.1,45.89-28.57-89.93,71.25,39.19-1.58,4.85Zm-149.6,0l-1.58-4.85,71.25-39.19-28.57,89.93-41.1-45.89Zm-22.46-68.77l88.65,19.65,.05,.12-69.72,38.35-18.98-58.12Zm9.48,48.35l-33.99-53.78,17.71,3.93,16.28,49.86Zm84.78-102.4v63.67l-1.22,.62-57.34-55.37,58.57-8.92Zm-64,3.68l-16.84-16.26,63.41,9.17-46.57,7.09Zm48.35,55.03l-79.33-44.24,28.95-4.41,50.38,48.65Zm-.73,6.46l-80.05-17.74-10.18-31.19,1.95-.3,88.28,49.23Zm16.37,26.72v111.1l-26.06-29.09,26.06-82.01Zm6,0l26.06,82.01-26.06,29.09v-111.1Zm16.37-26.72l88.28-49.23,1.95,.3-10.18,31.19-80.05,17.74Zm-.73-6.46l50.38-48.65,28.95,4.41-79.33,44.24Zm-14.42,5.58l-1.22-.62v-63.67l58.57,8.92-57.34,55.37Zm16.21-67.7l63.41-9.17-16.84,16.26-46.57-7.09Zm-23.43-44.39v40.85l-88.22-12.75-6.06-5.85,86.06-22.24h8.22Zm-98.38,26.63l-8.25-1.19,5.53-1.43,2.72,2.62Zm-21.1-4.07l-3.71-19.88,17.02,16.44-13.32,3.44Zm-4.69,6.27l6.67,20.89-57.33-31.97,50.66,11.08Zm6.65,1.09l26.52,3.83,19.54,18.86-32.07,4.88-6.31-3.52-7.68-24.06Zm4.84,34.85l9.45,28.96-20.06-4.45-14.39-22.76,24.99-1.74Zm-18.86,22.68l-3.2-.71-1.49-6.71,4.69,7.42Zm98.73,135.71l-5.89,18.53-24.46-52.42,30.35,33.89Zm4.65,5.19l27.09,30.25-19.89,21.1-13.99-29.98,6.79-21.37Zm28.17,37.86v69.55l-18.36-50.08,18.36-19.48Zm6,0l18.36,19.47-18.36,50.08v-69.55Zm1.07-7.61l27.09-30.25,6.79,21.37-13.99,29.98-19.89-21.1Zm31.74-35.44l30.35-33.89-24.46,52.42-5.89-18.53Zm98.73-135.71l4.69-7.42-1.49,6.71-3.2,.71Zm-8.25,1.83l-20.06,4.45,9.45-28.96,24.99,1.74-14.39,22.76Zm-19.76-31.77l-32.07-4.88,19.54-18.86,26.52-3.83-7.68,24.06-6.31,3.52Zm20.64-28.68l50.66-11.08-57.33,31.97,6.67-20.89Zm1.45-6.46l4.05-21.73,44.58,11.1-48.63,10.64Zm-26.27-5.01l-67.14-17.35h85.12l-17.97,17.35Zm-204.69,0l-17.97-17.35h85.12l-67.14,17.35Zm-30.32-16.72l4.05,21.73-48.63-10.64,44.58-11.1Zm14.83,57.43l.26,.81-27.12,1.89-36.36-37.96,63.22,35.25Zm-29.96,11.09l3.59,16.15-18.9-4.19,15.31-11.96Zm5.02,22.61l12.95,58.28-30.9-62.26,17.95,3.98Zm30.7,93.64l29.26-16.09,2.71,4.29,35.71,76.53-2.33,7.35-60.86-64.27-4.49-7.8Zm71.43,72.75l5.28,11.32-6.65-7.02,1.37-4.3Zm10.43,25.48l-20.78,7.1,6.91-21.75,13.87,14.65Zm3.58,5.12l16.44,44.84-36.86-37.86,20.43-6.97Zm53.25,0l20.43,6.97-36.87,37.86,16.44-44.84Zm3.58-5.12l13.87-14.65,6.91,21.75-20.78-7.1Zm5.15-14.17l5.28-11.32,1.37,4.3-6.65,7.02Zm9.03-19.34l35.71-76.53,2.71-4.29,29.26,16.09-4.49,7.8-60.86,64.27-2.33-7.35Zm98.38-158.36l17.95-3.98-30.9,62.26,12.95-58.28Zm1.44-6.46l3.59-16.15,15.31,11.96-18.9,4.19Zm.5-24.53l-27.12-1.89,.26-.82,63.22-35.25-36.36,37.96ZM66.17,105.36l33.47,34.95-15.75,12.31-17.72-47.25Zm89.04,186.84l45.99,48.57-6.42,20.21-39.57-68.78Zm150,68.78l-6.42-20.21,45.99-48.57-39.57,68.78Zm110.89-208.36l-15.75-12.31,33.47-34.95-17.72,47.25Z"/></svg>